<?xml version="1.0" encoding="utf-8"?>
<!-- Generator: Adobe Illustrator 21.1.0, SVG Export Plug-In . SVG Version: 6.00 Build 0)  -->
<svg version="1.1" xmlns="http://www.w3.org/2000/svg" xmlns:xlink="http://www.w3.org/1999/xlink" x="0px" y="0px"
	 viewBox="0 0 64 64" style="enable-background:new 0 0 64 64;" xml:space="preserve">
<style type="text/css">
	.st0{fill:#038EA5;}
	.st1{fill:#FFFFFF;}
	.st2{fill:none;}
	.st3{fill:#CACACA;}
	.st4{fill:#5D9B99;}
	.st5{fill:none;stroke:#038EA5;stroke-width:3;stroke-miterlimit:10;}
	.st6{fill:#038EA5;stroke:#CACACA;stroke-miterlimit:10;}
	.st7{fill:#FFFFFF;stroke:#038EA5;stroke-miterlimit:10;}
	.st8{fill:none;stroke:#038EA5;stroke-miterlimit:10;}
	.st9{clip-path:url(#SVGID_2_);fill:#038EA5;}
	.st10{fill:#CECECE;}
</style>
<g id="nextarrow">
</g>
<g id="prevarrow">
</g>
<g id="outerlink">
</g>
<g id="scheduling">
</g>
<g id="wireframe">
</g>
<g id="definition">
</g>
<g id="version">
</g>
<g id="taskrunner">
</g>
<g id="cms">
</g>
<g id="javascript">
</g>
<g id="css">
</g>
<g id="html">
</g>
<g id="sorting">
</g>
<g id="leadership">
</g>
<g id="communication">
	<rect class="st2" width="64" height="64"/>
	<path class="st10" d="M6.8,18.3h36.5c1.5,0,2.8,1.2,2.8,2.8v24.4c0,1.5-1.2,2.8-2.8,2.8H28.2l-10.9,8.3v-8.3H6.8
		C5.2,48.2,4,47,4,45.5V21.1C4,19.6,5.2,18.3,6.8,18.3z"/>
	<g>
		<path class="st0" d="M56.6,7H11.8c-1.9,0-3.4,1.5-3.4,3.4v29.9c0,1.9,1.5,3.4,3.4,3.4h18.6l13.3,10.2V43.7h12.9
			c1.9,0,3.4-1.5,3.4-3.4V10.4C60,8.5,58.5,7,56.6,7z"/>
	</g>
	<rect x="17.9" y="16.5" class="st4" width="29.9" height="2.7"/>
	<rect x="17.9" y="24.6" class="st4" width="32.6" height="2.7"/>
	<rect x="17.9" y="32.8" class="st4" width="16.3" height="2.7"/>
</g>
<g id="tone_x26_manner">
</g>
<g id="guide">
</g>
</svg>
