<?xml version="1.0" encoding="utf-8"?>
<!-- Generator: Adobe Illustrator 21.1.0, SVG Export Plug-In . SVG Version: 6.00 Build 0)  -->
<svg version="1.1" xmlns="http://www.w3.org/2000/svg" xmlns:xlink="http://www.w3.org/1999/xlink" x="0px" y="0px"
	 viewBox="0 0 64 64" style="enable-background:new 0 0 64 64;" xml:space="preserve">
<style type="text/css">
	.st0{fill:#038EA5;}
	.st1{fill:#FFFFFF;}
	.st2{fill:none;}
	.st3{fill:#CACACA;}
	.st4{fill:#5D9B99;}
	.st5{fill:none;stroke:#038EA5;stroke-width:3;stroke-miterlimit:10;}
	.st6{fill:#038EA5;stroke:#CACACA;stroke-miterlimit:10;}
	.st7{fill:#FFFFFF;stroke:#038EA5;stroke-miterlimit:10;}
	.st8{fill:none;stroke:#038EA5;stroke-miterlimit:10;}
	.st9{clip-path:url(#SVGID_2_);fill:#038EA5;}
	.st10{fill:#CECECE;}
</style>
<g id="c-carousel_x5F_next">
</g>
<g id="c-carousel_x5F_prev">
</g>
<g id="c-link_x5F_external">
</g>
<g id="c-card_x5F_schedule">
</g>
<g id="c-card_x5F_wireframe">
</g>
<g id="c-card_x5F_definition">
</g>
<g id="c-card_x5F_version">
</g>
<g id="c-card_x5F_developer">
</g>
<g id="c-card_x5F_cms">
</g>
<g id="c-card_x5F_javascript">
</g>
<g id="c-card_x5F_css">
</g>
<g id="c-card_x5F_html">
	<rect class="st2" width="64" height="64"/>
	<g>
		<path class="st1" d="M17.1,56.5c-1,0-1.9-0.9-1.9-1.9V9.4c0-1,0.9-1.9,1.9-1.9h24.1l8.6,8.6v38.5c0,1-0.9,1.9-1.9,1.9H17.1z"/>
		<path class="st3" d="M41,8l8.3,8.3v38.3c0,0.8-0.6,1.4-1.4,1.4H17.1c-0.8,0-1.4-0.6-1.4-1.4V9.4c0-0.8,0.6-1.4,1.4-1.4H41 M41.4,7
			H17.1c-1.3,0-2.4,1.1-2.4,2.4v45.2c0,1.3,1.1,2.4,2.4,2.4h30.8c1.3,0,2.4-1.1,2.4-2.4V15.9L41.4,7L41.4,7z"/>
	</g>
	<g>
		<path class="st3" d="M43.8,15.9c-1.3,0-2.4-1.1-2.4-2.4V7l8.9,8.9H43.8z"/>
	</g>
	<g>
		<g>
			<path class="st0" d="M27.9,34.8v1.9l-6.8-3.9v-0.7l6.8-3.9v1.9l-4.3,2.3L27.9,34.8z"/>
		</g>
		<g>
			<path class="st0" d="M35.4,25.4l-5.1,13.3h-1.7l5.1-13.3H35.4z"/>
		</g>
		<g>
			<path class="st0" d="M36.1,30.1v-1.9l6.8,3.9v0.7l-6.8,3.9v-1.9l4.3-2.4L36.1,30.1z"/>
		</g>
	</g>
</g>
<g id="c-card_x5F_sort">
</g>
<g id="c-card_x5F_leader">
</g>
<g id="c-card_x5F_comment">
</g>
<g id="tone_x26_manner">
</g>
<g id="guide">
</g>
</svg>
