<?xml version="1.0" encoding="utf-8"?>
<!-- Generator: Adobe Illustrator 21.1.0, SVG Export Plug-In . SVG Version: 6.00 Build 0)  -->
<svg version="1.1" xmlns="http://www.w3.org/2000/svg" xmlns:xlink="http://www.w3.org/1999/xlink" x="0px" y="0px"
	 viewBox="0 0 64 64" style="enable-background:new 0 0 64 64;" xml:space="preserve">
<style type="text/css">
	.st0{fill:#038EA5;}
	.st1{fill:#FFFFFF;}
	.st2{fill:none;}
	.st3{fill:#CACACA;}
	.st4{fill:#5D9B99;}
	.st5{fill:none;stroke:#038EA5;stroke-width:3;stroke-miterlimit:10;}
	.st6{fill:#038EA5;stroke:#CACACA;stroke-miterlimit:10;}
	.st7{fill:#FFFFFF;stroke:#038EA5;stroke-miterlimit:10;}
	.st8{fill:none;stroke:#038EA5;stroke-miterlimit:10;}
	.st9{clip-path:url(#SVGID_2_);fill:#038EA5;}
	.st10{fill:#CECECE;}
</style>
<g id="nextarrow">
</g>
<g id="prevarrow">
</g>
<g id="outerlink">
</g>
<g id="scheduling">
</g>
<g id="wireframe">
</g>
<g id="definition">
	<rect class="st2" width="64" height="64"/>
	<g>
		<path class="st1" d="M17.1,56.5c-1,0-1.9-0.9-1.9-1.9V9.4c0-1,0.9-1.9,1.9-1.9h24.1l8.6,8.6v38.5c0,1-0.9,1.9-1.9,1.9H17.1z"/>
		<path class="st3" d="M41,8l8.3,8.3v38.3c0,0.8-0.6,1.4-1.4,1.4H17.1c-0.8,0-1.4-0.6-1.4-1.4V9.4c0-0.8,0.6-1.4,1.4-1.4H41 M41.4,7
			H17.1c-1.3,0-2.4,1.1-2.4,2.4v45.2c0,1.3,1.1,2.4,2.4,2.4h30.8c1.3,0,2.4-1.1,2.4-2.4V15.9L41.4,7L41.4,7z"/>
	</g>
	<g>
		<path class="st3" d="M43.8,15.9c-1.3,0-2.4-1.1-2.4-2.4V7l8.9,8.9H43.8z"/>
	</g>
	<g>
		<polygon class="st0" points="20.2,21.7 19,22.9 22.8,26.7 29,20.4 27.8,19.2 22.8,24.2 		"/>
	</g>
	<g>
		<polygon class="st0" points="20.2,30.7 19,31.9 22.8,35.7 29,29.4 27.8,28.2 22.8,33.2 		"/>
	</g>
	<g>
		<polygon class="st0" points="20.2,39.7 19,40.9 22.8,44.7 29,38.4 27.8,37.2 22.8,42.2 		"/>
	</g>
	<g>
		<polygon class="st0" points="39.3,48 42.7,51.4 37.2,53.4 		"/>
		
			<rect x="38.9" y="40.7" transform="matrix(0.7071 -0.7071 0.7071 0.7071 -16.5858 46.2441)" class="st0" width="17.2" height="4.8"/>
		
			<rect x="52.4" y="34.8" transform="matrix(-0.7071 -0.7071 0.7071 -0.7071 68.2091 99.9758)" class="st0" width="4.8" height="2.1"/>
	</g>
</g>
<g id="version">
</g>
<g id="taskrunner">
</g>
<g id="cms">
</g>
<g id="javascript">
</g>
<g id="css">
</g>
<g id="html">
</g>
<g id="sorting">
</g>
<g id="leadership">
</g>
<g id="communication">
</g>
<g id="tone_x26_manner">
</g>
<g id="guide">
</g>
</svg>
