<svg xmlns="http://www.w3.org/2000/svg" viewBox="0 0 64 64"><defs><style>.cls-1{fill:none;}.cls-2{fill:#cacaca;}.cls-3{fill:#0f6da3;}</style></defs><title>c-card_leader</title><g id="レイヤー_2" data-name="レイヤー 2"><g id="c-card_leader"><rect class="cls-1" width="64" height="64"/><path class="cls-1" d="M16.46,28.31a6.36,6.36,0,0,1-2.79,3.23A7.09,7.09,0,0,1,16,33.21a8.13,8.13,0,0,1,3-2.33A6.91,6.91,0,0,1,16.46,28.31Z"/><path class="cls-1" d="M37.55,28.53A5.38,5.38,0,0,1,32.63,31c-2.76,0-4.66-1.41-5.21-3.18a7,7,0,0,1-2.85,3A8.07,8.07,0,0,1,27.36,33a7.79,7.79,0,0,1,10-.2A8,8,0,0,1,40,30.88,6.87,6.87,0,0,1,37.55,28.53Z"/><path class="cls-1" d="M47.77,28.83a6.77,6.77,0,0,1-2.28,2,8,8,0,0,1,2.78,2,7,7,0,0,1,2.05-1.37A6.24,6.24,0,0,1,47.77,28.83Z"/><path class="cls-2" d="M24.57,30.88a7,7,0,0,0,2.85-3,3.58,3.58,0,0,1-.11-1.69,1.84,1.84,0,0,1-1.68-1.3,2.62,2.62,0,0,1-.22-1.26l0,0c0-.66-.74-.72-.71-1.13.18-2.15-1.5-1.84-1.5-1.84,3.6-2,.43-3.89.43-3.89a2.4,2.4,0,0,0,.34.07,5.66,5.66,0,0,0-2.12-.42,6.62,6.62,0,0,0-6.06,4.82,5.52,5.52,0,0,0-4.53-2.56c-3.2,0-5.79,3-5.79,6.75a6.89,6.89,0,0,0,3.35,6.12C6,32.74,4,35.94,4,39.7v8.68h9.68v1.45h9.78v-8A11.58,11.58,0,0,1,27.36,33,8.07,8.07,0,0,0,24.57,30.88ZM16,33.21a7.09,7.09,0,0,0-2.35-1.67,6.36,6.36,0,0,0,2.79-3.23,6.91,6.91,0,0,0,2.61,2.57A8.13,8.13,0,0,0,16,33.21Z"/><path class="cls-2" d="M55.21,31.54a6.89,6.89,0,0,0,3.35-6.12c0-3.73-2.59-6.75-5.79-6.75a5.4,5.4,0,0,0-4.15,2.05,6.51,6.51,0,0,0-5.87-4.32,5.7,5.7,0,0,0-2.57.61c.3.67,1.66.83,1.66.83l-1.06.61a10.38,10.38,0,0,0,.74,3.13l-1.07-.9.36,1.9-1.11.09-.18.11a1.91,1.91,0,0,1,.11,2.06A1.84,1.84,0,0,1,38,26.15a3.61,3.61,0,0,1-.4,2.38A6.87,6.87,0,0,0,40,30.88a8,8,0,0,0-2.61,1.87,11.49,11.49,0,0,1,4.15,9.12v8h9.34V48.38H60V39.7C60,35.94,58,32.74,55.21,31.54Zm-9.71-.66a6.77,6.77,0,0,0,2.28-2,6.24,6.24,0,0,0,2.55,2.71,7,7,0,0,0-2.05,1.37A8,8,0,0,0,45.5,30.88Z"/><path class="cls-3" d="M37.4,32.75a7.79,7.79,0,0,0-10,.2,11.58,11.58,0,0,0-3.9,8.92V52.72H41.55V41.87A11.49,11.49,0,0,0,37.4,32.75Z"/><path class="cls-3" d="M23.17,20.64s1.68-.31,1.5,1.84c0,.42.72.47.71,1.13l0,0a2.62,2.62,0,0,0,.22,1.26,1.84,1.84,0,0,0,1.68,1.3,3.58,3.58,0,0,0,.11,1.69C28,29.61,29.87,31,32.63,31a5.38,5.38,0,0,0,4.92-2.49,3.61,3.61,0,0,0,.4-2.38,1.84,1.84,0,0,0,1.68-1.3,1.91,1.91,0,0,0-.11-2.06l.18-.11,1.11-.09-.36-1.9,1.07.9a10.38,10.38,0,0,1-.74-3.13l1.06-.61s-1.36-.16-1.66-.83a.63.63,0,0,1-.07-.2c-.07-.85-.63-3.34-4.22-4A5.22,5.22,0,0,0,32.48,11l0,.74s-2.94-1.06-5.36,2.92c-.76,1.25-1.39,1.68-2.34,1.06,0,0,.49,1.35-.88,1.1a2.4,2.4,0,0,1-.34-.07S26.77,18.59,23.17,20.64Z"/></g></g></svg>