<svg xmlns="http://www.w3.org/2000/svg" xmlns:xlink="http://www.w3.org/1999/xlink" viewBox="0 0 64 64"><defs><style>.cls-1{fill:none;}.cls-2{fill:#fff;}.cls-3{fill:#cacaca;}.cls-4{clip-path:url(#clip-path);}.cls-5{fill:#038ea5;}</style><clipPath id="clip-path"><polygon class="cls-1" points="36.3 12.5 39 12.5 40 9 38 9 36 4 31 3 27 5 24.69 12.5 27.13 12.5 24 24 25 27 28 29 32 28 36.3 12.5"/></clipPath></defs><title>c-card_sort</title><g id="レイヤー_2" data-name="レイヤー 2"><g id="c-card_sort"><rect class="cls-1" width="64" height="64"/><path class="cls-2" d="M14.45,57a1.72,1.72,0,0,1-1.71-1.71V14.66A1.72,1.72,0,0,1,14.45,13H36.12l7.74,7.74V55.34A1.72,1.72,0,0,1,42.15,57Z"/><path class="cls-3" d="M35.93,13.4l7.48,7.48V55.34a1.26,1.26,0,0,1-1.26,1.26H14.45a1.26,1.26,0,0,1-1.26-1.26V14.66a1.26,1.26,0,0,1,1.26-1.26H35.93m.37-.9H14.45a2.17,2.17,0,0,0-2.16,2.16V55.34a2.17,2.17,0,0,0,2.16,2.16H42.15a2.17,2.17,0,0,0,2.16-2.16V20.5l-8-8Z"/><path class="cls-3" d="M38.47,20.5a2.17,2.17,0,0,1-2.16-2.16V12.5l8,8Z"/><path class="cls-2" d="M16.65,57a1.72,1.72,0,0,1-1.71-1.71V14.66A1.72,1.72,0,0,1,16.65,13H38.32l7.74,7.74V55.34A1.72,1.72,0,0,1,44.35,57Z"/><path class="cls-3" d="M38.13,13.4l7.48,7.48V55.34a1.26,1.26,0,0,1-1.26,1.26H16.65a1.26,1.26,0,0,1-1.26-1.26V14.66a1.26,1.26,0,0,1,1.26-1.26H38.13m.37-.9H16.65a2.17,2.17,0,0,0-2.16,2.16V55.34a2.17,2.17,0,0,0,2.16,2.16H44.35a2.17,2.17,0,0,0,2.16-2.16V20.5l-8-8Z"/><path class="cls-3" d="M40.67,20.5a2.17,2.17,0,0,1-2.16-2.16V12.5l8,8Z"/><path class="cls-2" d="M18.85,57a1.72,1.72,0,0,1-1.71-1.71V14.66A1.72,1.72,0,0,1,18.85,13H40.52l7.74,7.74V55.34A1.72,1.72,0,0,1,46.55,57Z"/><path class="cls-3" d="M40.33,13.4l7.48,7.48V55.34a1.26,1.26,0,0,1-1.26,1.26H18.85a1.26,1.26,0,0,1-1.26-1.26V14.66a1.26,1.26,0,0,1,1.26-1.26H40.33m.37-.9H18.85a2.17,2.17,0,0,0-2.16,2.16V55.34a2.17,2.17,0,0,0,2.16,2.16H46.55a2.17,2.17,0,0,0,2.16-2.16V20.5l-8-8Z"/><path class="cls-3" d="M42.87,20.5a2.17,2.17,0,0,1-2.16-2.16V12.5l8,8Z"/><rect class="cls-3" x="20" y="31.5" width="22.92" height="2.72"/><rect class="cls-3" x="20" y="37.22" width="25" height="2.72"/><rect class="cls-3" x="20" y="42.93" width="12.5" height="2.72"/><g class="cls-4"><path class="cls-5" d="M37.58,10.69,32.41,30a5,5,0,0,1-9.66-2.59l3-11.27,2.16-8a4,4,0,1,1,7.73,2.07L34.1,16h0l-2.33,8.69A3,3,0,1,1,26,23.11L29.85,8.62l-1-.26L25,22.85a4,4,0,0,0,7.73,2.07l3.88-14.49a5,5,0,0,0-9.3-3.53L24.21,18.1l-1.13,4.23h0l-1.29,4.83a6,6,0,1,0,11.59,3.11l5.18-19.32Z"/></g></g></g></svg>