<svg xmlns="http://www.w3.org/2000/svg" viewBox="0 0 64 64"><defs><style>.cls-1{fill:none;}.cls-2{fill:#cacaca;}.cls-3{fill:#fff;}.cls-4{fill:#038ea5;}</style></defs><title>c-card_leader</title><g id="レイヤー_2" data-name="レイヤー 2"><g id="c-card_leader"><rect class="cls-1" width="64" height="64"/><path class="cls-1" d="M16.46,28.31a6.36,6.36,0,0,1-2.79,3.23A7.09,7.09,0,0,1,16,33.21a8.13,8.13,0,0,1,3-2.33A6.91,6.91,0,0,1,16.46,28.31Z"/><path class="cls-1" d="M37.55,28.53A5.38,5.38,0,0,1,32.63,31c-2.76,0-4.66-1.41-5.21-3.18a7,7,0,0,1-2.85,3A8.07,8.07,0,0,1,27.36,33a7.79,7.79,0,0,1,10-.2A8,8,0,0,1,40,30.88,6.87,6.87,0,0,1,37.55,28.53Z"/><path class="cls-1" d="M47.77,28.83a6.77,6.77,0,0,1-2.28,2,8,8,0,0,1,2.78,2,7,7,0,0,1,2.05-1.37A6.24,6.24,0,0,1,47.77,28.83Z"/><path class="cls-2" d="M3.71,48.67v-9c0-3.76,2-7.15,5-8.43l.13-.06.12.07a4.71,4.71,0,0,0,4.6,0l.12-.07.13.06A7.34,7.34,0,0,1,16.24,33l.17.19-.16.2A10.5,10.5,0,0,0,14,40.06v8.61Z"/><path class="cls-3" d="M13.68,31.54A7.09,7.09,0,0,1,16,33.21a10.8,10.8,0,0,0-2.34,6.85v8.32H4V39.7c0-3.77,2-7,4.79-8.16a5,5,0,0,0,4.88,0m0-.64L13.4,31a4.42,4.42,0,0,1-4.33,0l-.25-.13L8.56,31c-3.08,1.33-5.14,4.82-5.14,8.7V49H14.26v-8.9a10.21,10.21,0,0,1,2.21-6.49l.32-.39-.35-.37A7.63,7.63,0,0,0,13.9,31l-.26-.11Z"/><path class="cls-2" d="M11.23,32.42a5.3,5.3,0,0,1-2.56-.67,7.17,7.17,0,0,1-3.47-6.33c0-3.86,2.7-7,6-7A5.74,5.74,0,0,1,16,21.09l.07.1,0,.11a8.42,8.42,0,0,0-.44,2.7,8.22,8.22,0,0,0,1.12,4.19l.06.1,0,.11a6.61,6.61,0,0,1-2.89,3.35A5.3,5.3,0,0,1,11.23,32.42Z"/><path class="cls-3" d="M11.23,18.67a5.52,5.52,0,0,1,4.53,2.56A8.68,8.68,0,0,0,15.31,24a8.46,8.46,0,0,0,1.15,4.31,6.36,6.36,0,0,1-2.79,3.23,5,5,0,0,1-4.88,0,6.89,6.89,0,0,1-3.35-6.12c0-3.73,2.59-6.75,5.79-6.75m0-.48C7.78,18.19,5,21.43,5,25.42A7.42,7.42,0,0,0,8.56,32a5.48,5.48,0,0,0,5.34,0,6.85,6.85,0,0,0,3-3.47l.09-.22-.12-.21A8,8,0,0,1,15.79,24a8.19,8.19,0,0,1,.43-2.62l.08-.23-.14-.2a6,6,0,0,0-4.93-2.77Z"/><path class="cls-2" d="M13.36,50.16V40.06A11.11,11.11,0,0,1,15.77,33a8.49,8.49,0,0,1,3.17-2.42l.15-.06.14.08a5.3,5.3,0,0,0,5.18,0l.14-.08.15.06a8.35,8.35,0,0,1,2.91,2.16l.22.25-.26.22a11.29,11.29,0,0,0-3.78,8.67v8.28Z"/><path class="cls-3" d="M24.57,30.88A8.07,8.07,0,0,1,27.36,33a11.58,11.58,0,0,0-3.9,8.92v8H13.68V40.06A10.8,10.8,0,0,1,16,33.21a8.13,8.13,0,0,1,3-2.33,5.62,5.62,0,0,0,5.49,0m0-.72-.28.15a5,5,0,0,1-4.87,0l-.28-.15-.29.13a8.83,8.83,0,0,0-3.29,2.52A11.44,11.44,0,0,0,13,40.06V50.48H24.12V41.87a11,11,0,0,1,3.66-8.42L28.3,33l-.45-.5a8.68,8.68,0,0,0-3-2.24l-.29-.13Z"/><path class="cls-2" d="M21.82,31.87a6,6,0,0,1-2.88-.75,7.18,7.18,0,0,1-2.72-2.67A8.73,8.73,0,0,1,15,24a8.93,8.93,0,0,1,.47-2.86,6.84,6.84,0,0,1,6.31-5,5.94,5.94,0,0,1,2.22.44l2.48,1-2-.36a2.08,2.08,0,0,1,.59,1.37A2.43,2.43,0,0,1,24,20.45a1.38,1.38,0,0,1,.55.36,2.16,2.16,0,0,1,.43,1.69s.1.12.19.19a1.68,1.68,0,0,1,.35.35l.24-.3-.05.86a2.35,2.35,0,0,0,.2,1.13,1.71,1.71,0,0,0,1.3,1.14l.37-.05,0,.36a3.29,3.29,0,0,0,.1,1.56l0,.1-.05.1a7.27,7.27,0,0,1-3,3.15A6,6,0,0,1,21.82,31.87Z"/><path class="cls-3" d="M21.82,16.4a5.66,5.66,0,0,1,2.12.42,2.4,2.4,0,0,1-.34-.07s3.18,1.84-.43,3.89l.21,0c.45,0,1.43.19,1.29,1.86,0,.42.72.47.71,1.13l0,0a2.62,2.62,0,0,0,.22,1.26,2,2,0,0,0,1.55,1.31h.13a3.58,3.58,0,0,0,.11,1.69,7,7,0,0,1-2.85,3,5.62,5.62,0,0,1-5.49,0,6.91,6.91,0,0,1-2.61-2.57A8.46,8.46,0,0,1,15.31,24a8.68,8.68,0,0,1,.45-2.77,6.62,6.62,0,0,1,6.06-4.82m0-.54a7.11,7.11,0,0,0-6.57,5.19A9.22,9.22,0,0,0,14.77,24,9,9,0,0,0,16,28.58a7.45,7.45,0,0,0,2.82,2.77,6.17,6.17,0,0,0,6,0,7.54,7.54,0,0,0,3.08-3.27l.1-.2-.07-.21a3,3,0,0,1-.1-1.44L28,25.5l-.74.11h-.05c-.3,0-.77-.34-1.06-1a2.06,2.06,0,0,1-.18-1l.14-1.76-.61.76-.17-.14-.08-.06a2.35,2.35,0,0,0-.5-1.79,1.61,1.61,0,0,0-.26-.23,2.45,2.45,0,0,0,1-1.82,2,2,0,0,0-.26-1l3.94.72-5-2a6.2,6.2,0,0,0-2.32-.46Z"/><path class="cls-2" d="M50.6,48.67V40.06a10.49,10.49,0,0,0-2.54-7l-.19-.21.2-.19a7.24,7.24,0,0,1,2.14-1.42l.13-.06.12.07a4.71,4.71,0,0,0,4.6,0l.12-.07.13.06c3,1.28,5,4.67,5,8.43v9Z"/><path class="cls-3" d="M55.21,31.54C58,32.74,60,35.94,60,39.7v8.68H50.89V40.06a10.7,10.7,0,0,0-2.62-7.16,7,7,0,0,1,2.05-1.37,5,5,0,0,0,4.88,0m0-.64-.25.13a4.42,4.42,0,0,1-4.33,0l-.25-.13L50.1,31a7.54,7.54,0,0,0-2.22,1.48l-.41.39.38.42a10.2,10.2,0,0,1,2.47,6.77V49H60.58V39.7c0-3.88-2.07-7.37-5.14-8.7l-.26-.11Z"/><path class="cls-2" d="M52.77,32.42a5.3,5.3,0,0,1-2.56-.67,6.45,6.45,0,0,1-2.65-2.81l-.06-.13.08-.12A8.18,8.18,0,0,0,49,24a8.34,8.34,0,0,0-.63-3.19l-.06-.13.09-.11a5.61,5.61,0,0,1,4.33-2.14c3.32,0,6,3.14,6,7a7.17,7.17,0,0,1-3.47,6.33A5.3,5.3,0,0,1,52.77,32.42Z"/><path class="cls-3" d="M52.77,18.67c3.2,0,5.79,3,5.79,6.75a6.89,6.89,0,0,1-3.35,6.12,5,5,0,0,1-4.88,0,6.24,6.24,0,0,1-2.55-2.71A8.37,8.37,0,0,0,49.26,24a8.61,8.61,0,0,0-.64-3.28,5.4,5.4,0,0,1,4.15-2.05m0-.48a5.85,5.85,0,0,0-4.52,2.22l-.19.22.11.27A8.09,8.09,0,0,1,48.78,24a7.93,7.93,0,0,1-1.4,4.55l-.17.24.13.26A6.69,6.69,0,0,0,50.09,32a5.48,5.48,0,0,0,5.34,0A7.42,7.42,0,0,0,59,25.42c0-4-2.81-7.23-6.27-7.23Z"/><path class="cls-2" d="M41.23,50.16V41.87a11.16,11.16,0,0,0-4-8.86l-.29-.22.25-.26a8.3,8.3,0,0,1,2.71-1.95l.15-.06.14.08a5.3,5.3,0,0,0,5.18,0l.14-.08.15.06a8.31,8.31,0,0,1,2.89,2.11,11,11,0,0,1,2.7,7.38V50.16Z"/><path class="cls-3" d="M45.5,30.88a8,8,0,0,1,2.78,2,10.7,10.7,0,0,1,2.62,7.16v9.77H41.55v-8a11.49,11.49,0,0,0-4.15-9.12A8,8,0,0,1,40,30.88a5.62,5.62,0,0,0,5.49,0m0-.72-.28.15a5,5,0,0,1-4.87,0L40,30.16l-.29.13a8.63,8.63,0,0,0-2.82,2l-.5.52.57.44a10.83,10.83,0,0,1,3.9,8.6v8.61H51.54V40.06a11.29,11.29,0,0,0-2.78-7.59,8.63,8.63,0,0,0-3-2.19l-.29-.13Z"/><path class="cls-2" d="M42.75,31.87a6,6,0,0,1-2.88-.75,7.17,7.17,0,0,1-2.56-2.44l-.09-.14.08-.14a3.34,3.34,0,0,0,.38-2.2l-.07-.37.38.05a1.68,1.68,0,0,0,1.38-1.14A1.67,1.67,0,0,0,39.33,23l-.24-.24.52-.33.87-.07L40,20l.89.75a8.32,8.32,0,0,1-.42-2.28V18.3L41.1,18a1.82,1.82,0,0,1-1.16-.83l-.11-.24.23-.12a6,6,0,0,1,2.69-.64,6.82,6.82,0,0,1,6.12,4.49A8.85,8.85,0,0,1,49.53,24,8.69,8.69,0,0,1,48,29a7.09,7.09,0,0,1-2.37,2.13A6,6,0,0,1,42.75,31.87Z"/><path class="cls-3" d="M42.75,16.4a6.51,6.51,0,0,1,5.87,4.32A8.61,8.61,0,0,1,49.26,24a8.37,8.37,0,0,1-1.49,4.83,6.77,6.77,0,0,1-2.28,2,5.62,5.62,0,0,1-5.49,0,6.87,6.87,0,0,1-2.46-2.35,3.61,3.61,0,0,0,.4-2.38h.13a2,2,0,0,0,1.55-1.31,1.91,1.91,0,0,0-.11-2.06l.18-.11,1.11-.09-.36-1.9,1.07.9a10.38,10.38,0,0,1-.74-3.13l1.06-.61s-1.36-.16-1.66-.83a5.7,5.7,0,0,1,2.57-.61m0-.54a6.22,6.22,0,0,0-2.81.67l-.46.23.21.47a1.66,1.66,0,0,0,.79.76l-.24.14v.31a6.87,6.87,0,0,0,.2,1.51l-.8-.68.28,1.49.25,1.31-.51,0h-.13l-.11.07-.18.11-.57.36.48.48a1.43,1.43,0,0,1,0,1.46c-.28.64-.76,1-1.06,1H38l-.74-.11.13.74a3.07,3.07,0,0,1-.35,2l-.15.28.17.27a7.44,7.44,0,0,0,2.65,2.53,6.17,6.17,0,0,0,6,0,7.35,7.35,0,0,0,2.46-2.21A9,9,0,0,0,49.8,24a9.11,9.11,0,0,0-.69-3.48,7.09,7.09,0,0,0-6.37-4.65Z"/><path class="cls-4" d="M23.1,53.09V41.87a12,12,0,0,1,4-9.2,8.15,8.15,0,0,1,10.49-.21,11.84,11.84,0,0,1,4.29,9.41V53.09Z"/><path class="cls-3" d="M32.51,31a8,8,0,0,1,4.89,1.73,11.49,11.49,0,0,1,4.15,9.12V52.72H23.47V41.87A11.58,11.58,0,0,1,27.36,33,8,8,0,0,1,32.51,31m0-.72a8.71,8.71,0,0,0-5.61,2.1,12.35,12.35,0,0,0-4.16,9.47V53.45H42.28V41.87a12.21,12.21,0,0,0-4.43-9.69,8.68,8.68,0,0,0-5.33-1.88Z"/><path class="cls-4" d="M32.63,31.38c-2.73,0-4.91-1.35-5.56-3.43a3.93,3.93,0,0,1-.17-1.46A2.48,2.48,0,0,1,25.29,25,3,3,0,0,1,25,23.7a.34.34,0,0,1,0-.09c0-.17-.07-.25-.28-.41a.86.86,0,0,1-.43-.74,1.6,1.6,0,0,0-.26-1.21.89.89,0,0,0-.67-.26h-.21a.36.36,0,0,1-.18-.68c.7-.4,1.53-1,1.54-1.75s-1.1-1.51-1.11-1.52a.36.36,0,0,1,.18-.67l.11,0,.21,0,.33,0c.09,0,.2,0,.25-.08a.84.84,0,0,0,0-.57.36.36,0,0,1,.54-.43,1.13,1.13,0,0,0,.59.22c.37,0,.75-.36,1.24-1.17,1.71-2.8,3.71-3.22,4.75-3.22a3.9,3.9,0,0,1,.53,0l0-.26a.36.36,0,0,1,.36-.38,5.42,5.42,0,0,1,3.6,1.8c3.81.8,4.33,3.52,4.4,4.35.18.41.94.65,1.41.7a.36.36,0,0,1,.14.67l-.88.5a10.7,10.7,0,0,0,.71,2.79.36.36,0,0,1-.57.41L41,21.61l.17.91a.36.36,0,0,1-.33.43l-.75.06A2.6,2.6,0,0,1,40,25a2.48,2.48,0,0,1-1.61,1.49,4,4,0,0,1-.49,2.21A5.74,5.74,0,0,1,32.63,31.38Z"/><path class="cls-3" d="M32.48,11a5.22,5.22,0,0,1,3.41,1.76c3.6.71,4.15,3.2,4.22,4a.63.63,0,0,0,.07.2c.3.67,1.66.83,1.66.83l-1.06.61a10.38,10.38,0,0,0,.74,3.13l-1.07-.9.36,1.9-1.11.09-.18.11a1.91,1.91,0,0,1,.11,2.06,2,2,0,0,1-1.55,1.31H38a3.61,3.61,0,0,1-.4,2.38A5.38,5.38,0,0,1,32.63,31c-2.76,0-4.66-1.41-5.21-3.18a3.58,3.58,0,0,1-.11-1.69h-.13a2,2,0,0,1-1.55-1.31,2.62,2.62,0,0,1-.22-1.26l0,0c0-.66-.74-.72-.71-1.13.14-1.67-.84-1.86-1.29-1.86l-.21,0c3.6-2,.43-3.89.43-3.89a2.4,2.4,0,0,0,.34.07l.31,0c1,0,.57-1.13.57-1.13a1.47,1.47,0,0,0,.79.28c.56,0,1-.47,1.55-1.34,1.58-2.59,3.38-3,4.44-3a3,3,0,0,1,.92.13l0-.74m0-.72a.72.72,0,0,0-.72.62H31.6c-1.12,0-3.26.44-5.06,3.39-.53.86-.81,1-.93,1a.82.82,0,0,1-.4-.16.72.72,0,0,0-1.08.85.9.9,0,0,1,0,.16h-.1l-.09,0-.16,0a.72.72,0,0,0-.58,1.32c.24.14.94.68.93,1.21s-.48.94-1.35,1.43a.72.72,0,0,0,.36,1.35h.21a.55.55,0,0,1,.4.14,1.31,1.31,0,0,1,.17.94,1.21,1.21,0,0,0,.56,1.05,1.1,1.1,0,0,1,.15.14.73.73,0,0,0,0,.08A3.37,3.37,0,0,0,25,25.15a3,3,0,0,0,1.57,1.61,4.33,4.33,0,0,0,.2,1.3c.7,2.24,3,3.69,5.9,3.69a6.09,6.09,0,0,0,5.55-2.87,4.37,4.37,0,0,0,.55-2.11,3,3,0,0,0,1.57-1.61,3.18,3.18,0,0,0,.26-1.81l.31,0a.72.72,0,0,0,.65-.85l0-.15h0a.72.72,0,0,0,.67-1,11,11,0,0,1-.66-2.45l.68-.39a.72.72,0,0,0-.28-1.35,2,2,0,0,1-1.09-.41v0c-.17-1.79-1.46-3.89-4.57-4.59a5.73,5.73,0,0,0-3.79-1.83Z"/></g></g></svg>