<svg xmlns="http://www.w3.org/2000/svg" viewBox="0 0 64 64"><defs><style>.cls-1{fill:none;}.cls-2{fill:#cecece;}.cls-3{fill:#038ea5;}.cls-4{fill:#5d9b99;}</style></defs><title>c-card_comment</title><g id="レイヤー_2" data-name="レイヤー 2"><g id="c-card_comment"><rect class="cls-1" width="64" height="64"/><path class="cls-2" d="M6.77,18.34H43.32a2.77,2.77,0,0,1,2.77,2.77V45.48a2.77,2.77,0,0,1-2.77,2.77H28.18L17.29,56.55V48.25H6.77A2.77,2.77,0,0,1,4,45.48V21.11A2.77,2.77,0,0,1,6.77,18.34Z"/><path class="cls-3" d="M56.61,7H11.81a3.39,3.39,0,0,0-3.39,3.39V40.26a3.39,3.39,0,0,0,3.39,3.39H30.36L43.71,53.84V43.65h12.9A3.39,3.39,0,0,0,60,40.26V10.39A3.39,3.39,0,0,0,56.61,7Z"/><rect class="cls-4" x="17.92" y="16.5" width="29.87" height="2.72"/><rect class="cls-4" x="17.92" y="24.65" width="32.58" height="2.72"/><rect class="cls-4" x="17.92" y="32.79" width="16.29" height="2.72"/></g></g></svg>