<?xml version="1.0" encoding="utf-8"?>
<!-- Generator: Adobe Illustrator 21.1.0, SVG Export Plug-In . SVG Version: 6.00 Build 0)  -->
<svg version="1.1" xmlns="http://www.w3.org/2000/svg" xmlns:xlink="http://www.w3.org/1999/xlink" x="0px" y="0px"
	 viewBox="0 0 64 64" style="enable-background:new 0 0 64 64;" xml:space="preserve">
<style type="text/css">
	.st0{fill:#038EA5;}
	.st1{fill:#FFFFFF;}
	.st2{fill:none;}
	.st3{fill:#CACACA;}
	.st4{fill:#5D9B99;}
	.st5{fill:none;stroke:#038EA5;stroke-width:3;stroke-miterlimit:10;}
	.st6{fill:#038EA5;stroke:#CACACA;stroke-miterlimit:10;}
	.st7{fill:#FFFFFF;stroke:#038EA5;stroke-miterlimit:10;}
	.st8{fill:none;stroke:#038EA5;stroke-miterlimit:10;}
	.st9{clip-path:url(#SVGID_2_);fill:#038EA5;}
	.st10{fill:#CECECE;}
</style>
<g id="nextarrow">
</g>
<g id="prevarrow">
</g>
<g id="outerlink">
</g>
<g id="scheduling">
</g>
<g id="wireframe">
</g>
<g id="definition">
</g>
<g id="version">
</g>
<g id="taskrunner">
</g>
<g id="cms">
</g>
<g id="javascript">
</g>
<g id="css">
</g>
<g id="html">
</g>
<g id="sorting">
</g>
<g id="leadership">
	<rect class="st2" width="64" height="64"/>
	<g id="other-back">
		<g>
			<path class="st3" d="M45.2,48.7v-9c0-4.9,3.4-9,7.5-9c4.1,0,7.5,4,7.5,9v9H45.2z"/>
			<path class="st1" d="M52.8,31c4,0,7.2,3.9,7.2,8.7v8.7H45.5v-8.7C45.5,34.9,48.8,31,52.8,31 M52.8,30.4c-4.3,0-7.8,4.2-7.8,9.3
				v8.7V49h0.6H60h0.6v-0.6v-8.7C60.6,34.6,57.1,30.4,52.8,30.4L52.8,30.4z"/>
		</g>
		<g>
			<ellipse class="st3" cx="52.8" cy="25.4" rx="6" ry="7"/>
			<path class="st1" d="M52.8,18.7c3.2,0,5.8,3,5.8,6.8s-2.6,6.8-5.8,6.8c-3.2,0-5.8-3-5.8-6.8S49.6,18.7,52.8,18.7 M52.8,18.2
				c-3.5,0-6.3,3.2-6.3,7.2s2.8,7.2,6.3,7.2s6.3-3.2,6.3-7.2S56.2,18.2,52.8,18.2L52.8,18.2z"/>
		</g>
	</g>
	<g id="other-back_1_">
		<g>
			<path class="st3" d="M3.7,48.7v-9c0-4.9,3.4-9,7.5-9c4.1,0,7.5,4,7.5,9v9H3.7z"/>
			<path class="st1" d="M11.2,31c4,0,7.2,3.9,7.2,8.7v8.7H4v-8.7C4,34.9,7.2,31,11.2,31 M11.2,30.4c-4.3,0-7.8,4.2-7.8,9.3v8.7V49H4
				h14.5H19v-0.6v-8.7C19,34.6,15.5,30.4,11.2,30.4L11.2,30.4z"/>
		</g>
		<g>
			<ellipse class="st3" cx="11.2" cy="25.4" rx="6" ry="7"/>
			<path class="st1" d="M11.2,18.7c3.2,0,5.8,3,5.8,6.8s-2.6,6.8-5.8,6.8s-5.8-3-5.8-6.8S8,18.7,11.2,18.7 M11.2,18.2
				c-3.5,0-6.3,3.2-6.3,7.2s2.8,7.2,6.3,7.2s6.3-3.2,6.3-7.2S14.7,18.2,11.2,18.2L11.2,18.2z"/>
		</g>
	</g>
	<g id="other-flont">
		<g>
			<path class="st3" d="M34.3,50.2V40.1c0-5.6,3.8-10.1,8.5-10.1c4.7,0,8.5,4.5,8.5,10.1v10.1H34.3z"/>
			<path class="st1" d="M42.7,30.3c4.5,0,8.1,4.4,8.1,9.8v9.8H34.6v-9.8C34.6,34.7,38.3,30.3,42.7,30.3 M42.7,29.6
				c-4.8,0-8.8,4.7-8.8,10.4v9.8v0.7h0.7h16.3h0.7v-0.7v-9.8C51.5,34.3,47.6,29.6,42.7,29.6L42.7,29.6z"/>
		</g>
		<g>
			<ellipse class="st3" cx="42.7" cy="24" rx="6.8" ry="7.9"/>
			<path class="st1" d="M42.7,16.4c3.6,0,6.5,3.4,6.5,7.6s-2.9,7.6-6.5,7.6s-6.5-3.4-6.5-7.6S39.2,16.4,42.7,16.4 M42.7,15.9
				c-3.9,0-7.1,3.7-7.1,8.1s3.2,8.1,7.1,8.1c3.9,0,7.1-3.7,7.1-8.1S46.6,15.9,42.7,15.9L42.7,15.9z"/>
		</g>
	</g>
	<g id="other-flont_1_">
		<g>
			<path class="st3" d="M13.4,50.2V40.1c0-5.6,3.8-10.1,8.5-10.1c4.7,0,8.5,4.5,8.5,10.1v10.1H13.4z"/>
			<path class="st1" d="M21.8,30.3c4.5,0,8.1,4.4,8.1,9.8v9.8H13.7v-9.8C13.7,34.7,17.3,30.3,21.8,30.3 M21.8,29.6
				c-4.8,0-8.8,4.7-8.8,10.4v9.8v0.7h0.7H30h0.7v-0.7v-9.8C30.6,34.3,26.7,29.6,21.8,29.6L21.8,29.6z"/>
		</g>
		<g>
			<ellipse class="st3" cx="21.8" cy="24" rx="6.8" ry="7.9"/>
			<path class="st1" d="M21.8,16.4c3.6,0,6.5,3.4,6.5,7.6s-2.9,7.6-6.5,7.6s-6.5-3.4-6.5-7.6S18.2,16.4,21.8,16.4 M21.8,15.9
				c-3.9,0-7.1,3.7-7.1,8.1s3.2,8.1,7.1,8.1c3.9,0,7.1-3.7,7.1-8.1S25.7,15.9,21.8,15.9L21.8,15.9z"/>
		</g>
	</g>
	<g id="leader">
		<g>
			<path class="st0" d="M23.1,53.1V41.9c0-6.2,4.2-11.2,9.4-11.2c5.2,0,9.4,5,9.4,11.2v11.2H23.1z"/>
			<path class="st1" d="M32.5,31c5,0,9,4.9,9,10.9v10.9H23.5V41.9C23.5,35.9,27.5,31,32.5,31 M32.5,30.3c-5.4,0-9.8,5.2-9.8,11.6
				v10.9v0.7h0.7h18.1h0.7v-0.7V41.9C42.3,35.5,37.9,30.3,32.5,30.3L32.5,30.3z"/>
		</g>
		<g>
			<path class="st0" d="M32.6,31.4c-2,0-3.7-0.7-4.7-2c-0.7-0.9-1.1-1.9-1-2.9c-0.6-0.1-1.3-0.7-1.6-1.5c-0.2-0.4-0.3-0.9-0.3-1.3
				c0,0,0-0.1,0-0.1c0-0.2-0.1-0.2-0.3-0.4c-0.2-0.1-0.5-0.4-0.4-0.7c0-0.6,0-1-0.3-1.2C23.9,21,23.6,21,23.4,21c-0.1,0-0.1,0-0.1,0
				c0,0,0,0-0.1,0c-0.2,0-0.3-0.1-0.3-0.2c-0.1-0.2,0-0.3,0.2-0.4c0.7-0.4,1.5-1,1.5-1.7c0-0.8-1.1-1.5-1.1-1.5
				c-0.2-0.1-0.2-0.3-0.1-0.5c0.1-0.1,0.2-0.2,0.3-0.2c0,0,0.1,0,0.1,0c0.2,0.1,0.4,0.1,0.6,0.1c0.1,0,0.2,0,0.2-0.1
				c0.1-0.1,0-0.4,0-0.6c-0.1-0.1,0-0.3,0.1-0.4c0.1-0.1,0.1-0.1,0.2-0.1c0.1,0,0.1,0,0.2,0.1c0.2,0.1,0.4,0.2,0.6,0.2
				c0.4,0,0.8-0.4,1.2-1.2c1.7-2.8,3.7-3.2,4.8-3.2c0.2,0,0.4,0,0.5,0l0-0.3c0-0.1,0-0.2,0.1-0.3s0.2-0.1,0.3-0.1
				c1.8,0,3.2,1.4,3.6,1.8c3.8,0.8,4.3,3.5,4.4,4.3c0,0.4,1,0.7,1.4,0.7c0.2,0,0.3,0.1,0.3,0.3c0,0.2,0,0.3-0.2,0.4l-0.9,0.5
				c0.1,1.2,0.7,2.8,0.7,2.8c0.1,0.2,0,0.3-0.1,0.4c-0.1,0-0.1,0.1-0.2,0.1c-0.1,0-0.2,0-0.2-0.1L41,21.6l0.2,0.9
				c0,0.1,0,0.2-0.1,0.3s-0.2,0.1-0.3,0.1L40.1,23c0.2,0.5,0.2,1.3-0.1,2c-0.4,0.8-1,1.4-1.6,1.5c0.1,1-0.3,2.1-1,2.9
				C36.3,30.7,34.6,31.4,32.6,31.4z"/>
			<path class="st1" d="M32.5,11c1.9,0,3.4,1.8,3.4,1.8c3.6,0.7,4.2,3.2,4.2,4c0.1,0.8,1.7,1,1.7,1l-1.1,0.6c0,1.3,0.7,3.1,0.7,3.1
				l-1.1-0.9l0.4,1.9l-1.1,0.1l-0.2,0.1c0.4,0.4,0.5,1.2,0.1,2.1c-0.4,0.8-1,1.3-1.6,1.3c0,0-0.1,0-0.1,0c0.4,2.5-1.7,4.9-5.3,4.9
				c-3.6,0-5.8-2.4-5.3-4.9c0,0-0.1,0-0.1,0c-0.6,0-1.2-0.5-1.6-1.3c-0.2-0.4-0.3-0.9-0.2-1.3l0,0c0-0.7-0.7-0.7-0.7-1.1
				c0.1-1.7-0.8-1.9-1.3-1.9c-0.1,0-0.2,0-0.2,0c3.6-2,0.4-3.9,0.4-3.9c0.3,0.1,0.5,0.1,0.7,0.1c1,0,0.6-1.2,0.6-1.2
				c0.3,0.2,0.5,0.3,0.8,0.3c0.6,0,1-0.5,1.6-1.3c1.6-2.6,3.4-3,4.4-3c0.6,0,0.9,0.1,0.9,0.1L32.5,11 M32.5,10.3
				c-0.2,0-0.4,0.1-0.5,0.2c-0.1,0.1-0.2,0.2-0.2,0.4c-0.1,0-0.1,0-0.2,0c-1.1,0-3.3,0.4-5.1,3.4c-0.5,0.9-0.8,1-0.9,1
				c-0.1,0-0.2-0.1-0.4-0.2C25.1,15,25,15,24.8,15c-0.2,0-0.3,0.1-0.5,0.2c-0.2,0.2-0.3,0.5-0.2,0.8c0,0.1,0,0.1,0,0.2
				c-0.1,0-0.2,0-0.4-0.1c-0.1,0-0.1,0-0.2,0c-0.3,0-0.5,0.2-0.7,0.4c-0.1,0.3,0,0.7,0.3,0.9c0.2,0.1,0.9,0.7,0.9,1.2
				c0,0.4-0.5,0.9-1.4,1.4c-0.3,0.2-0.4,0.5-0.3,0.9c0.1,0.3,0.4,0.5,0.7,0.5c0,0,0.1,0,0.1,0c0,0,0,0,0.1,0c0.1,0,0.3,0,0.4,0.1
				c0.1,0.2,0.2,0.5,0.2,0.9c0,0.6,0.4,0.9,0.6,1.1c0.1,0,0.1,0.1,0.2,0.1c0,0,0,0.1,0,0.1c0,0.5,0.1,1,0.3,1.5
				c0.4,0.8,0.9,1.4,1.6,1.6c0,1,0.4,2,1.1,2.9c1.1,1.3,2.9,2.1,5,2.1c2.1,0,3.9-0.8,5-2.1c0.7-0.8,1.1-1.9,1.1-2.9
				c0.6-0.2,1.2-0.8,1.6-1.6c0.3-0.6,0.4-1.3,0.3-1.8l0.3,0c0.2,0,0.4-0.1,0.5-0.3c0.1-0.2,0.2-0.4,0.1-0.6l0-0.1c0,0,0,0,0,0
				c0.1,0,0.3,0,0.4-0.1c0.3-0.2,0.4-0.6,0.2-0.9c0,0-0.5-1.3-0.7-2.4l0.7-0.4c0.3-0.2,0.4-0.5,0.3-0.8c-0.1-0.3-0.3-0.5-0.6-0.6
				c-0.5-0.1-1-0.3-1.1-0.4c-0.1-1.8-1.4-3.9-4.6-4.6C35.8,11.6,34.3,10.3,32.5,10.3L32.5,10.3z"/>
		</g>
	</g>
</g>
<g id="communication">
</g>
<g id="tone_x26_manner">
</g>
<g id="guide">
</g>
</svg>
