<?xml version="1.0" encoding="utf-8"?>
<!-- Generator: Adobe Illustrator 21.1.0, SVG Export Plug-In . SVG Version: 6.00 Build 0)  -->
<svg version="1.1" xmlns="http://www.w3.org/2000/svg" xmlns:xlink="http://www.w3.org/1999/xlink" x="0px" y="0px"
	 viewBox="0 0 64 64" style="enable-background:new 0 0 64 64;" xml:space="preserve">
<style type="text/css">
	.st0{fill:#038EA5;}
	.st1{fill:#FFFFFF;}
	.st2{fill:none;}
	.st3{fill:#CACACA;}
	.st4{fill:#5D9B99;}
	.st5{fill:none;stroke:#038EA5;stroke-width:3;stroke-miterlimit:10;}
	.st6{fill:#038EA5;stroke:#CACACA;stroke-miterlimit:10;}
	.st7{fill:#FFFFFF;stroke:#038EA5;stroke-miterlimit:10;}
	.st8{fill:none;stroke:#038EA5;stroke-miterlimit:10;}
	.st9{clip-path:url(#SVGID_2_);fill:#038EA5;}
	.st10{fill:#CECECE;}
</style>
<g id="nextarrow">
</g>
<g id="prevarrow">
</g>
<g id="outerlink">
</g>
<g id="scheduling">
</g>
<g id="wireframe">
	<rect class="st2" width="64" height="64"/>
	<g>
		<path class="st1" d="M17.1,56.5c-1,0-1.9-0.9-1.9-1.9V9.4c0-1,0.9-1.9,1.9-1.9h24.1l8.6,8.6v38.5c0,1-0.9,1.9-1.9,1.9H17.1z"/>
		<path class="st3" d="M41,8l8.3,8.3v38.3c0,0.8-0.6,1.4-1.4,1.4H17.1c-0.8,0-1.4-0.6-1.4-1.4V9.4c0-0.8,0.6-1.4,1.4-1.4H41 M41.4,7
			H17.1c-1.3,0-2.4,1.1-2.4,2.4v45.2c0,1.3,1.1,2.4,2.4,2.4h30.8c1.3,0,2.4-1.1,2.4-2.4V15.9L41.4,7L41.4,7z"/>
	</g>
	<rect x="19.5" y="13.2" class="st0" width="25" height="15"/>
	<g>
		<path class="st3" d="M43.8,15.9c-1.3,0-2.4-1.1-2.4-2.4V7l8.9,8.9H43.8z"/>
	</g>
	<rect x="19.5" y="31.9" class="st4" width="22.9" height="2"/>
	<rect x="19.5" y="34.9" class="st4" width="25" height="2"/>
	<rect x="19.5" y="37.9" class="st4" width="12.5" height="2"/>
	<rect x="32" y="49.9" class="st4" width="12.5" height="2"/>
	<rect x="32" y="46.9" class="st4" width="10" height="2"/>
	<rect x="32" y="43.9" class="st4" width="12.5" height="2"/>
	<rect x="19.5" y="43.9" class="st0" width="10" height="8.1"/>
</g>
<g id="definition">
</g>
<g id="version">
</g>
<g id="taskrunner">
</g>
<g id="cms">
</g>
<g id="javascript">
</g>
<g id="css">
</g>
<g id="html">
</g>
<g id="sorting">
</g>
<g id="leadership">
</g>
<g id="communication">
</g>
<g id="tone_x26_manner">
</g>
<g id="guide">
</g>
</svg>
