<svg xmlns="http://www.w3.org/2000/svg" viewBox="0 0 64 64"><defs><style>.cls-1{fill:none;}.cls-2{fill:#fff;}.cls-3{fill:#cacaca;}.cls-4{fill:#038ea5;}</style></defs><title>c-card_definition</title><g id="レイヤー_2" data-name="レイヤー 2"><g id="c-card_definition"><rect class="cls-1" width="64" height="64"/><path class="cls-2" d="M17.12,56.5a1.91,1.91,0,0,1-1.9-1.9V9.4a1.91,1.91,0,0,1,1.9-1.9H41.19l8.6,8.6V54.6a1.91,1.91,0,0,1-1.9,1.9Z"/><path class="cls-3" d="M41,8l8.31,8.31V54.6a1.41,1.41,0,0,1-1.4,1.4H17.12a1.41,1.41,0,0,1-1.4-1.4V9.4A1.41,1.41,0,0,1,17.12,8H41m.41-1H17.12a2.41,2.41,0,0,0-2.4,2.4V54.6a2.41,2.41,0,0,0,2.4,2.4H47.88a2.41,2.41,0,0,0,2.4-2.4V15.89L41.39,7Z"/><path class="cls-3" d="M43.8,15.89a2.41,2.41,0,0,1-2.4-2.4V7l8.89,8.89Z"/><polygon class="cls-4" points="20.25 21.66 19 22.91 22.75 26.66 29 20.41 27.75 19.16 22.75 24.16 20.25 21.66"/><polygon class="cls-4" points="20.25 30.66 19 31.91 22.75 35.66 29 29.41 27.75 28.16 22.75 33.16 20.25 30.66"/><polygon class="cls-4" points="20.25 39.66 19 40.91 22.75 44.66 29 38.41 27.75 37.16 22.75 42.16 20.25 39.66"/><polygon class="cls-4" points="39.28 48 42.67 51.4 37.24 53.43 39.28 48"/><rect class="cls-4" x="38.95" y="40.74" width="17.16" height="4.81" transform="translate(-16.59 46.24) rotate(-45)"/><rect class="cls-4" x="52.41" y="34.83" width="4.81" height="2.06" transform="translate(68.21 99.98) rotate(-135)"/></g></g></svg>