<svg xmlns="http://www.w3.org/2000/svg" viewBox="0 0 64 64"><defs><style>.cls-1{fill:none;}.cls-2{fill:#fff;}.cls-3{fill:#cacaca;}.cls-4{fill:#038ea5;}</style></defs><title>c-card_css</title><g id="レイヤー_2" data-name="レイヤー 2"><g id="c-card_css"><rect class="cls-1" width="64" height="64"/><path class="cls-2" d="M16.12,56.5a1.91,1.91,0,0,1-1.9-1.9V9.4a1.91,1.91,0,0,1,1.9-1.9H40.19l8.6,8.6V54.6a1.91,1.91,0,0,1-1.9,1.9Z"/><path class="cls-3" d="M40,8l8.31,8.31V54.6a1.41,1.41,0,0,1-1.4,1.4H16.12a1.41,1.41,0,0,1-1.4-1.4V9.4A1.41,1.41,0,0,1,16.12,8H40m.41-1H16.12a2.41,2.41,0,0,0-2.4,2.4V54.6a2.41,2.41,0,0,0,2.4,2.4H46.88a2.41,2.41,0,0,0,2.4-2.4V15.89L40.39,7Z"/><path class="cls-3" d="M42.8,15.89a2.41,2.41,0,0,1-2.4-2.4V7l8.89,8.89Z"/><path class="cls-4" d="M24.52,38.63a1.77,1.77,0,0,1-2-1.88V34.39c0-1.27-.13-1.55-.76-1.68V31.29c.63-.11.76-.39.76-1.68V27.24a1.77,1.77,0,0,1,2-1.88H26v1.51h-.56c-.55,0-.7,0-.88.2s-.21.34-.21.83v1.74c0,1.76-.07,2-.74,2.37.66.28.74.57.74,2.34V36.1c0,.49,0,.67.21.83s.34.2.88.2H26v1.51Z"/><path class="cls-4" d="M27.2,36.52v-2h2v2Z"/><path class="cls-4" d="M31,36.52v-2h2v2Z"/><path class="cls-4" d="M34.76,36.52v-2h2v2Z"/><path class="cls-4" d="M38,37.12h.56c.55,0,.7,0,.88-.2s.21-.34.21-.83V34.35c0-1.78.08-2.06.74-2.34-.67-.36-.74-.6-.74-2.37V27.9c0-.49,0-.67-.21-.83s-.34-.2-.88-.2H38V25.37h1.46a1.77,1.77,0,0,1,2,1.88v2.37c0,1.3.13,1.57.76,1.68v1.42c-.63.13-.76.41-.76,1.68v2.37a1.77,1.77,0,0,1-2,1.88H38Z"/></g></g></svg>