<?xml version="1.0" encoding="utf-8"?>
<!-- Generator: Adobe Illustrator 21.1.0, SVG Export Plug-In . SVG Version: 6.00 Build 0)  -->
<svg version="1.1" xmlns="http://www.w3.org/2000/svg" xmlns:xlink="http://www.w3.org/1999/xlink" x="0px" y="0px"
	 viewBox="0 0 64 64" style="enable-background:new 0 0 64 64;" xml:space="preserve">
<style type="text/css">
	.st0{fill:#038EA5;}
	.st1{fill:#FFFFFF;}
	.st2{fill:none;}
	.st3{fill:#CACACA;}
	.st4{fill:#5D9B99;}
	.st5{fill:none;stroke:#038EA5;stroke-width:3;stroke-miterlimit:10;}
	.st6{fill:#038EA5;stroke:#CACACA;stroke-miterlimit:10;}
	.st7{fill:#FFFFFF;stroke:#038EA5;stroke-miterlimit:10;}
	.st8{fill:none;stroke:#038EA5;stroke-miterlimit:10;}
	.st9{clip-path:url(#SVGID_2_);fill:#038EA5;}
	.st10{fill:#CECECE;}
</style>
<g id="nextarrow">
</g>
<g id="prevarrow">
</g>
<g id="outerlink">
</g>
<g id="scheduling">
</g>
<g id="wireframe">
</g>
<g id="definition">
</g>
<g id="version">
</g>
<g id="taskrunner">
	<rect class="st2" width="64" height="64"/>
	<path class="st6" d="M58.2,52.6h-52c-1.1,0-2-0.9-2-2V14c0-1.1,0.9-2,2-2h52c1.1,0,2,0.9,2,2v36.6C60.2,51.7,59.3,52.6,58.2,52.6z"
		/>
	<path class="st3" d="M60.2,17.6h-56V14c0-1.1,0.9-2,2-2h52c1.1,0,2,0.9,2,2V17.6z"/>
	<circle class="st4" cx="7.5" cy="14.8" r="1.1"/>
	<circle class="st4" cx="10.9" cy="14.8" r="1.1"/>
	<circle class="st4" cx="14.2" cy="14.8" r="1.1"/>
	<g>
		<path class="st1" d="M7.7,21.9v-1l5.6,3.2v0.3l-5.6,3.2v-1l4.3-2.4L7.7,21.9z"/>
		<path class="st1" d="M19.5,28.8v0.5h-6v-0.5H19.5z"/>
	</g>
</g>
<g id="cms">
</g>
<g id="javascript">
</g>
<g id="css">
</g>
<g id="html">
</g>
<g id="sorting">
</g>
<g id="leadership">
</g>
<g id="communication">
</g>
<g id="tone_x26_manner">
</g>
<g id="guide">
</g>
</svg>
