<svg xmlns="http://www.w3.org/2000/svg" viewBox="0 0 64 64"><defs><style>.cls-1,.cls-5{fill:none;}.cls-2{fill:#fff;}.cls-2,.cls-5{stroke:#038ea5;stroke-miterlimit:10;}.cls-3{fill:#038ea5;}.cls-4{fill:#cacaca;}.cls-6{fill:#5d9b99;}</style></defs><title>c-card_javascript</title><g id="レイヤー_2" data-name="レイヤー 2"><g id="c-card_javascript"><rect class="cls-1" width="64" height="64"/><path class="cls-2" d="M43.28,31.5h0c-3.17,0-5.76-5.16-5.76-11.5,0-.17,0-.33,0-.5h12c-.13-6.67-2.87-12-6.24-12H20.47C17,7.5,14.21,13.1,14.21,20S17,32.48,20.45,32.5h0c3.17,0,5.76,5.16,5.76,11.5,0,.17,0,.33,0,.5h-12c.13,6.67,2.87,12,6.24,12H43.26c3.46,0,6.26-5.6,6.26-12.5S46.73,31.52,43.28,31.5Z"/><path class="cls-3" d="M43.55,31.5h0c-3.17,0-5.76-5.16-5.76-11.5S40.37,8.5,43.54,8.5s5.61,4.89,5.74,11h.5c-.13-6.67-2.87-12-6.24-12S37,13.1,37,20s3.08,12.48,6.53,12.5h0c3.17,0,5.76,5.16,5.76,11.5s-2.58,11.5-5.76,11.5-5.61-4.89-5.74-11h-.5c.13,6.67,2.87,12,6.24,12s6.26-5.6,6.26-12.5S47,31.52,43.55,31.5Z"/><path class="cls-4" d="M37.8,19.5H49.3C49.3,14.25,46.73,8,43.55,8S37.8,14.25,37.8,19.5Z"/><line class="cls-5" x1="25.93" y1="44.5" x2="37.78" y2="44.5"/><rect class="cls-6" x="18.92" y="11.15" width="16.29" height="2"/><rect class="cls-6" x="18.92" y="26.15" width="16.29" height="2"/><rect class="cls-6" x="25" y="31" width="13" height="2.15"/><rect class="cls-6" x="16.92" y="16.15" width="16.29" height="2"/><rect class="cls-6" x="16.92" y="21.15" width="16.29" height="2"/></g></g></svg>