<svg xmlns="http://www.w3.org/2000/svg" viewBox="0 0 64 64"><defs><style>.cls-1{fill:none;}.cls-2{fill:#cacaca;}.cls-3{fill:#fff;}.cls-4{fill:#038ea5;}</style></defs><title>c-card_leader</title><g id="レイヤー_2" data-name="レイヤー 2"><g id="c-card_leader"><rect class="cls-1" width="64" height="64"/><path class="cls-2" d="M45.24,48.67v-9c0-4.95,3.38-9,7.52-9s7.52,4,7.52,9v9Z"/><path class="cls-3" d="M52.77,31c4,0,7.23,3.89,7.23,8.68v8.68H45.53V39.7c0-4.79,3.24-8.68,7.23-8.68m0-.58C48.46,30.44,45,34.6,45,39.7V49H60.58V39.7c0-5.11-3.51-9.26-7.81-9.26Z"/><ellipse class="cls-2" cx="52.77" cy="25.42" rx="6.03" ry="6.99"/><path class="cls-3" d="M52.77,18.67c3.2,0,5.79,3,5.79,6.75S56,32.17,52.77,32.17,47,29.15,47,25.42s2.59-6.75,5.79-6.75m0-.48c-3.46,0-6.27,3.25-6.27,7.23s2.81,7.23,6.27,7.23S59,29.41,59,25.42s-2.81-7.23-6.27-7.23Z"/><path class="cls-2" d="M3.71,48.67v-9c0-4.95,3.38-9,7.52-9s7.52,4,7.52,9v9Z"/><path class="cls-3" d="M11.23,31c4,0,7.23,3.89,7.23,8.68v8.68H4V39.7C4,34.91,7.24,31,11.23,31m0-.58c-4.31,0-7.81,4.15-7.81,9.26V49H19V39.7c0-5.11-3.51-9.26-7.81-9.26Z"/><ellipse class="cls-2" cx="11.23" cy="25.42" rx="6.03" ry="6.99"/><path class="cls-3" d="M11.23,18.67c3.2,0,5.79,3,5.79,6.75s-2.59,6.75-5.79,6.75-5.79-3-5.79-6.75S8,18.67,11.23,18.67m0-.48C7.78,18.19,5,21.43,5,25.42s2.81,7.23,6.27,7.23,6.27-3.25,6.27-7.23-2.81-7.23-6.27-7.23Z"/><path class="cls-2" d="M34.28,50.16V40.06c0-5.56,3.8-10.09,8.46-10.09s8.46,4.53,8.46,10.09V50.16Z"/><path class="cls-3" d="M42.75,30.3c4.5,0,8.14,4.37,8.14,9.77v9.77H34.61V40.06c0-5.39,3.64-9.77,8.14-9.77m0-.65C37.9,29.65,34,34.32,34,40.06V50.48H51.54V40.06c0-5.74-3.94-10.42-8.79-10.42Z"/><ellipse class="cls-2" cx="42.75" cy="24" rx="6.78" ry="7.87"/><path class="cls-3" d="M42.75,16.4c3.6,0,6.51,3.4,6.51,7.6s-2.92,7.6-6.51,7.6-6.51-3.4-6.51-7.6,2.92-7.6,6.51-7.6m0-.54c-3.89,0-7.05,3.65-7.05,8.14s3.16,8.14,7.05,8.14S49.8,28.49,49.8,24s-3.16-8.14-7.05-8.14Z"/><path class="cls-2" d="M13.36,50.16V40.06c0-5.56,3.8-10.09,8.46-10.09s8.46,4.53,8.46,10.09V50.16Z"/><path class="cls-3" d="M21.82,30.3c4.5,0,8.14,4.37,8.14,9.77v9.77H13.68V40.06c0-5.39,3.64-9.77,8.14-9.77m0-.65C17,29.65,13,34.32,13,40.06V50.48H30.61V40.06c0-5.74-3.94-10.42-8.79-10.42Z"/><ellipse class="cls-2" cx="21.82" cy="24" rx="6.78" ry="7.87"/><path class="cls-3" d="M21.82,16.4c3.6,0,6.51,3.4,6.51,7.6s-2.92,7.6-6.51,7.6-6.51-3.4-6.51-7.6,2.92-7.6,6.51-7.6m0-.54c-3.89,0-7.05,3.65-7.05,8.14s3.16,8.14,7.05,8.14,7.05-3.65,7.05-8.14-3.16-8.14-7.05-8.14Z"/><path class="cls-4" d="M23.1,53.09V41.87c0-6.18,4.22-11.21,9.4-11.21s9.41,5,9.41,11.21V53.09Z"/><path class="cls-3" d="M32.51,31c5,0,9,4.86,9,10.85V52.72H23.47V41.87c0-6,4-10.85,9-10.85m0-.72c-5.39,0-9.77,5.19-9.77,11.58V53.45H42.28V41.87c0-6.38-4.38-11.58-9.77-11.58Z"/><path class="cls-4" d="M32.63,31.38a6.11,6.11,0,0,1-4.75-2,4.05,4.05,0,0,1-1-2.93A2.48,2.48,0,0,1,25.29,25,3,3,0,0,1,25,23.7a.34.34,0,0,1,0-.09c0-.17-.07-.25-.28-.41a.86.86,0,0,1-.43-.74,1.6,1.6,0,0,0-.26-1.21.89.89,0,0,0-.67-.26h-.21a.36.36,0,0,1-.18-.68c.7-.4,1.53-1,1.54-1.75s-1.1-1.51-1.11-1.52a.36.36,0,0,1,.18-.67l.11,0a2,2,0,0,0,.56.11c.09,0,.2,0,.24-.07a.86.86,0,0,0,0-.6.36.36,0,0,1,.54-.43,1.13,1.13,0,0,0,.59.22c.37,0,.75-.36,1.24-1.17,1.71-2.8,3.71-3.22,4.75-3.22a3.91,3.91,0,0,1,.53,0l0-.26a.36.36,0,0,1,.36-.38,5.42,5.42,0,0,1,3.6,1.8c3.81.8,4.33,3.52,4.4,4.35,0,.41,1,.65,1.41.7a.36.36,0,0,1,.14.67l-.88.5a10.7,10.7,0,0,0,.71,2.79.36.36,0,0,1-.57.41L41,21.61l.17.91a.36.36,0,0,1-.33.43l-.75.06A2.6,2.6,0,0,1,40,25a2.48,2.48,0,0,1-1.61,1.49,4.05,4.05,0,0,1-1,2.93A6.11,6.11,0,0,1,32.63,31.38Z"/><path class="cls-3" d="M32.48,11a5.22,5.22,0,0,1,3.42,1.76c3.6.71,4.15,3.2,4.22,4s1.73,1,1.73,1l-1.06.61a10.37,10.37,0,0,0,.74,3.13l-1.07-.9.36,1.9-1.11.09-.18.11a1.91,1.91,0,0,1,.11,2.06,2,2,0,0,1-1.55,1.31H38c.43,2.46-1.72,4.87-5.32,4.87s-5.76-2.41-5.32-4.87h-.13a2,2,0,0,1-1.55-1.31,2.62,2.62,0,0,1-.22-1.26l0,0c0-.66-.74-.72-.71-1.13.14-1.67-.84-1.86-1.29-1.86l-.21,0c3.6-2,.43-3.89.43-3.89a2.28,2.28,0,0,0,.67.12c1,0,.55-1.16.55-1.16a1.47,1.47,0,0,0,.79.28c.56,0,1-.47,1.55-1.34,1.58-2.59,3.38-3,4.44-3a3,3,0,0,1,.92.13l0-.74m0-.72a.72.72,0,0,0-.72.62H31.6c-1.12,0-3.26.44-5.06,3.39-.53.86-.81,1-.93,1a.82.82,0,0,1-.4-.16.72.72,0,0,0-1.07.86,1,1,0,0,1,0,.17,2,2,0,0,1-.37-.08.72.72,0,0,0-.58,1.32c.24.14.94.68.93,1.21s-.48.94-1.35,1.43a.72.72,0,0,0,.36,1.35h.21a.55.55,0,0,1,.4.14,1.31,1.31,0,0,1,.17.94,1.21,1.21,0,0,0,.56,1.05,1.1,1.1,0,0,1,.15.14.74.74,0,0,0,0,.08A3.37,3.37,0,0,0,25,25.15a3,3,0,0,0,1.56,1.61,4.43,4.43,0,0,0,1.08,2.89,6.47,6.47,0,0,0,5,2.09,6.47,6.47,0,0,0,5-2.09,4.43,4.43,0,0,0,1.08-2.89,3,3,0,0,0,1.56-1.61,3.18,3.18,0,0,0,.26-1.81l.31,0a.72.72,0,0,0,.65-.85l0-.15h0a.72.72,0,0,0,.67-1,11,11,0,0,1-.66-2.45l.68-.39a.72.72,0,0,0-.28-1.35,2.07,2.07,0,0,1-1.09-.4c-.14-1.78-1.43-3.92-4.56-4.62a5.73,5.73,0,0,0-3.79-1.83Z"/></g></g></svg>