<svg xmlns="http://www.w3.org/2000/svg" viewBox="0 0 64 64"><defs><style>.cls-1{fill:none;}.cls-2{fill:#038ea5;stroke:#cacaca;stroke-miterlimit:10;}.cls-3{fill:#cacaca;}.cls-4{fill:#5d9b99;}.cls-5{fill:#fff;}</style></defs><title>c-card_developer</title><g id="レイヤー_2" data-name="レイヤー 2"><g id="c-card_developer"><rect class="cls-1" width="64" height="64"/><rect class="cls-2" x="4.16" y="11.98" width="56" height="40.63" rx="2" ry="2"/><path class="cls-3" d="M6.16,12h52a2,2,0,0,1,2,2v3.6a0,0,0,0,1,0,0h-56a0,0,0,0,1,0,0V14A2,2,0,0,1,6.16,12Z"/><circle class="cls-4" cx="7.52" cy="14.78" r="1.12"/><circle class="cls-4" cx="10.88" cy="14.78" r="1.12"/><circle class="cls-4" cx="14.24" cy="14.78" r="1.12"/><path class="cls-5" d="M7.67,21.86v-1l5.56,3.24v.34L7.67,27.71v-1L12,24.31Z"/><path class="cls-5" d="M19.49,28.76v.49h-6v-.49Z"/></g></g></svg>