<?xml version="1.0" encoding="utf-8"?>
<!-- Generator: Adobe Illustrator 21.1.0, SVG Export Plug-In . SVG Version: 6.00 Build 0)  -->
<svg version="1.1" xmlns="http://www.w3.org/2000/svg" xmlns:xlink="http://www.w3.org/1999/xlink" x="0px" y="0px"
	 viewBox="0 0 64 64" style="enable-background:new 0 0 64 64;" xml:space="preserve">
<style type="text/css">
	.st0{fill:none;}
	.st1{fill:#038EA5;}
	.st2{fill:#CACACA;}
	.st3{fill:#038EA5;stroke:#FFFFFF;stroke-width:0.5;stroke-miterlimit:10;}
	.st4{fill:#FFFFFF;}
	.st5{fill:#CACACA;stroke:#FFFFFF;stroke-width:0.5;stroke-miterlimit:10;}
	.st6{fill:#038EA5;stroke:#FFFFFF;stroke-width:0.25;stroke-miterlimit:10;}
	.st7{clip-path:url(#SVGID_2_);fill:#CACACA;}
	.st8{fill:#5D9B99;}
	.st9{fill:none;stroke:#038EA5;stroke-width:3;stroke-miterlimit:10;}
	.st10{fill:#038EA5;stroke:#CACACA;stroke-miterlimit:10;}
	.st11{fill:#FFFFFF;stroke:#038EA5;stroke-miterlimit:10;}
	.st12{fill:none;stroke:#038EA5;stroke-miterlimit:10;}
	.st13{clip-path:url(#SVGID_4_);fill:#038EA5;}
	.st14{fill:#CECECE;}
</style>
<g id="c-map_x5F__x5F_all">
	<g id="c-map_x5F__x5F_all_x5F_hide">
	</g>
</g>
<g id="c-map_x5F__x5F_pin--other_x5F_hide">
</g>
<g id="c-map_x5F__x5F_pin--other_1_">
</g>
<g id="c-map_x5F__x5F_pin--large_x5F_hide">
</g>
<g id="c-map_x5F__x5F_pin--large">
</g>
<g id="c-map_x5F__x5F_pin--medium">
</g>
<g id="c-map_x5F__x5F_pin--small">
</g>
<g id="c-link_x5F__x5F_arakawa">
</g>
<g id="c-carousel_x5F_next">
</g>
<g id="c-carousel_x5F_prev">
</g>
<g id="c-link_x5F_external">
</g>
<g id="c-card_x5F_schedule">
</g>
<g id="c-card_x5F_wireframe">
</g>
<g id="c-card_x5F_definition">
</g>
<g id="c-card_x5F_version">
</g>
<g id="c-card_x5F_developer">
</g>
<g id="c-card_x5F_cms">
</g>
<g id="c-card_x5F_javascript">
</g>
<g id="c-card_x5F_css">
</g>
<g id="c-card_x5F_html">
</g>
<g id="c-card_x5F_sort">
	<g>
		<g>
			<path class="st4" d="M14.5,57c-0.9,0-1.7-0.8-1.7-1.7V14.7c0-0.9,0.8-1.7,1.7-1.7h21.7l7.7,7.7v34.6c0,0.9-0.8,1.7-1.7,1.7H14.5z
				"/>
			<path class="st2" d="M35.9,13.4l7.5,7.5v34.5c0,0.7-0.6,1.3-1.3,1.3H14.5c-0.7,0-1.3-0.6-1.3-1.3V14.7c0-0.7,0.6-1.3,1.3-1.3
				H35.9 M36.3,12.5H14.5c-1.2,0-2.2,1-2.2,2.2v40.7c0,1.2,1,2.2,2.2,2.2h27.7c1.2,0,2.2-1,2.2-2.2V20.5L36.3,12.5L36.3,12.5z"/>
		</g>
		<g>
			<path class="st2" d="M38.5,20.5c-1.2,0-2.2-1-2.2-2.2v-5.8l8,8H38.5z"/>
		</g>
	</g>
	<g>
		<g>
			<path class="st4" d="M16.7,57c-0.9,0-1.7-0.8-1.7-1.7V14.7c0-0.9,0.8-1.7,1.7-1.7h21.7l7.7,7.7v34.6c0,0.9-0.8,1.7-1.7,1.7H16.7z
				"/>
			<path class="st2" d="M38.1,13.4l7.5,7.5v34.5c0,0.7-0.6,1.3-1.3,1.3H16.7c-0.7,0-1.3-0.6-1.3-1.3V14.7c0-0.7,0.6-1.3,1.3-1.3
				H38.1 M38.5,12.5H16.7c-1.2,0-2.2,1-2.2,2.2v40.7c0,1.2,1,2.2,2.2,2.2h27.7c1.2,0,2.2-1,2.2-2.2V20.5L38.5,12.5L38.5,12.5z"/>
		</g>
		<g>
			<path class="st2" d="M40.7,20.5c-1.2,0-2.2-1-2.2-2.2v-5.8l8,8H40.7z"/>
		</g>
	</g>
	<g>
		<g>
			<path class="st4" d="M18.9,57c-0.9,0-1.7-0.8-1.7-1.7V14.7c0-0.9,0.8-1.7,1.7-1.7h21.7l7.7,7.7v34.6c0,0.9-0.8,1.7-1.7,1.7H18.9z
				"/>
			<path class="st2" d="M40.3,13.4l7.5,7.5v34.5c0,0.7-0.6,1.3-1.3,1.3H18.9c-0.7,0-1.3-0.6-1.3-1.3V14.7c0-0.7,0.6-1.3,1.3-1.3
				H40.3 M40.7,12.5H18.9c-1.2,0-2.2,1-2.2,2.2v40.7c0,1.2,1,2.2,2.2,2.2h27.7c1.2,0,2.2-1,2.2-2.2V20.5L40.7,12.5L40.7,12.5z"/>
		</g>
		<g>
			<path class="st2" d="M42.9,20.5c-1.2,0-2.2-1-2.2-2.2v-5.8l8,8H42.9z"/>
		</g>
		<rect x="20" y="31.5" class="st2" width="22.9" height="2.7"/>
		<rect x="20" y="37.2" class="st2" width="25" height="2.7"/>
		<rect x="20" y="42.9" class="st2" width="12.5" height="2.7"/>
	</g>
	<g>
		<defs>
			<polygon id="SVGID_3_" points="36.3,12.5 39,12.5 40,9 38,9 36,4 31,3 27,5 24.7,12.5 27.1,12.5 24,24 25,27 28,29 32,28 			"/>
		</defs>
		<clipPath id="SVGID_2_">
			<use xlink:href="#SVGID_3_"  style="overflow:visible;"/>
		</clipPath>
		<path style="clip-path:url(#SVGID_2_);fill:#038EA5;" d="M37.6,10.7L32.4,30c-0.7,2.7-3.5,4.2-6.1,3.5c-2.7-0.7-4.2-3.5-3.5-6.1
			l3-11.3l2.2-8c0.6-2.1,2.8-3.4,4.9-2.8c2.1,0.6,3.4,2.8,2.8,4.9L34.1,16l0,0l-2.3,8.7c-0.4,1.6-2.1,2.5-3.7,2.1
			c-1.6-0.4-2.5-2.1-2.1-3.7l3.9-14.5l-1-0.3L25,22.8c-0.6,2.1,0.7,4.3,2.8,4.9c2.1,0.6,4.3-0.7,4.9-2.8l3.9-14.5
			c0.7-2.7-0.9-5.4-3.5-6.1c-2.3-0.6-4.7,0.5-5.8,2.6l-3.1,11.2l-1.1,4.2l0,0l-1.3,4.8c-0.9,3.2,1,6.5,4.2,7.3
			c3.2,0.9,6.5-1,7.3-4.2l5.2-19.3L37.6,10.7z"/>
	</g>
</g>
<g id="c-card_x5F_leader">
</g>
<g id="c-card_x5F_comment">
</g>
<g id="tone_x26_manner">
</g>
<g id="guide">
</g>
</svg>
