<svg xmlns="http://www.w3.org/2000/svg" viewBox="0 0 64 64"><defs><style>.cls-1{fill:none;}.cls-2{fill:#fff;}.cls-3{fill:#cacaca;}.cls-4{fill:#038ea5;}.cls-5{fill:#5d9b99;}</style></defs><title>c-card_wireframe</title><g id="レイヤー_2" data-name="レイヤー 2"><g id="c-card_wireframe"><rect class="cls-1" width="64" height="64"/><path class="cls-2" d="M17.12,56.5a1.91,1.91,0,0,1-1.9-1.9V9.4a1.91,1.91,0,0,1,1.9-1.9H41.19l8.6,8.6V54.6a1.91,1.91,0,0,1-1.9,1.9Z"/><path class="cls-3" d="M41,8l8.31,8.31V54.6a1.41,1.41,0,0,1-1.4,1.4H17.12a1.41,1.41,0,0,1-1.4-1.4V9.4A1.41,1.41,0,0,1,17.12,8H41m.41-1H17.12a2.41,2.41,0,0,0-2.4,2.4V54.6a2.41,2.41,0,0,0,2.4,2.4H47.88a2.41,2.41,0,0,0,2.4-2.4V15.89L41.39,7Z"/><rect class="cls-4" x="19.5" y="13.15" width="25" height="15"/><path class="cls-3" d="M43.8,15.89a2.41,2.41,0,0,1-2.4-2.4V7l8.89,8.89Z"/><rect class="cls-5" x="19.5" y="31.86" width="22.92" height="2"/><rect class="cls-5" x="19.5" y="34.86" width="25" height="2"/><rect class="cls-5" x="19.5" y="37.86" width="12.5" height="2"/><rect class="cls-5" x="32" y="49.86" width="12.5" height="2"/><rect class="cls-5" x="32" y="46.86" width="10" height="2"/><rect class="cls-5" x="32" y="43.86" width="12.5" height="2"/><rect class="cls-4" x="19.5" y="43.86" width="10" height="8.14"/></g></g></svg>