<svg xmlns="http://www.w3.org/2000/svg" viewBox="0 0 64 64"><defs><style>.cls-1{fill:none;}.cls-2{fill:#fff;}.cls-3{fill:#cacaca;}.cls-4{fill:#038ea5;}.cls-5{fill:#5d9b99;}</style></defs><title>c-card_cms</title><g id="レイヤー_2" data-name="レイヤー 2"><g id="c-card_cms"><rect class="cls-1" width="64" height="64"/><rect class="cls-2" x="4.66" y="12.48" width="55" height="39.63" rx="1.5" ry="1.5"/><path class="cls-3" d="M58.16,13a1,1,0,0,1,1,1V50.61a1,1,0,0,1-1,1h-52a1,1,0,0,1-1-1V14a1,1,0,0,1,1-1h52m0-1h-52a2,2,0,0,0-2,2V50.61a2,2,0,0,0,2,2h52a2,2,0,0,0,2-2V14a2,2,0,0,0-2-2Z"/><path class="cls-4" d="M35.44,33.62a8.79,8.79,0,0,0,0-2.41,24.22,24.22,0,0,1-2.39-.51,6.67,6.67,0,0,0-.7-1.68A22.49,22.49,0,0,1,33.67,27,9,9,0,0,0,32,25.3,22.49,22.49,0,0,1,30,26.62a6.67,6.67,0,0,0-1.68-.7,24.22,24.22,0,0,1-.51-2.39,8.79,8.79,0,0,0-2.41,0,24.22,24.22,0,0,1-.51,2.39,6.67,6.67,0,0,0-1.68.7,22.48,22.48,0,0,1-2.06-1.32A9,9,0,0,0,19.45,27,22.49,22.49,0,0,1,20.77,29a6.67,6.67,0,0,0-.7,1.68,24.22,24.22,0,0,1-2.39.51,8.79,8.79,0,0,0,0,2.41,24.22,24.22,0,0,1,2.39.51,6.67,6.67,0,0,0,.7,1.68,22.48,22.48,0,0,1-1.32,2.06,9,9,0,0,0,1.66,1.66,22.49,22.49,0,0,1,2.06-1.32,6.67,6.67,0,0,0,1.68.7,24.21,24.21,0,0,1,.51,2.39,8.79,8.79,0,0,0,2.41,0,24.22,24.22,0,0,1,.51-2.39,6.67,6.67,0,0,0,1.68-.7A22.49,22.49,0,0,1,32,39.52a9,9,0,0,0,1.66-1.66,22.49,22.49,0,0,1-1.32-2.06,6.67,6.67,0,0,0,.7-1.68A24.22,24.22,0,0,1,35.44,33.62Zm-8.88,2.63a3.84,3.84,0,1,1,3.84-3.84A3.84,3.84,0,0,1,26.56,36.25Z"/><path class="cls-4" d="M46.94,41.2a6.87,6.87,0,0,0,0-1.88,18.92,18.92,0,0,1-1.86-.4,5.21,5.21,0,0,0-.54-1.31,17.57,17.57,0,0,1,1-1.61,7,7,0,0,0-1.3-1.3,17.57,17.57,0,0,1-1.61,1,5.21,5.21,0,0,0-1.31-.54,18.92,18.92,0,0,1-.4-1.86,6.87,6.87,0,0,0-1.88,0,18.92,18.92,0,0,1-.4,1.86,5.21,5.21,0,0,0-1.31.54,17.56,17.56,0,0,1-1.61-1,7,7,0,0,0-1.3,1.3,17.57,17.57,0,0,1,1,1.61,5.21,5.21,0,0,0-.54,1.31,18.92,18.92,0,0,1-1.86.4,6.87,6.87,0,0,0,0,1.88,18.92,18.92,0,0,1,1.86.4,5.21,5.21,0,0,0,.54,1.31,17.56,17.56,0,0,1-1,1.61,7,7,0,0,0,1.3,1.3,17.57,17.57,0,0,1,1.61-1,5.21,5.21,0,0,0,1.31.54,18.92,18.92,0,0,1,.4,1.86,6.87,6.87,0,0,0,1.88,0,18.92,18.92,0,0,1,.4-1.86,5.21,5.21,0,0,0,1.31-.54,17.57,17.57,0,0,1,1.61,1,7,7,0,0,0,1.3-1.3,17.57,17.57,0,0,1-1-1.61,5.21,5.21,0,0,0,.54-1.31A18.92,18.92,0,0,1,46.94,41.2ZM40,43.25a3,3,0,1,1,3-3A3,3,0,0,1,40,43.25Z"/><path class="cls-3" d="M60.16,17.58h-56V14a2,2,0,0,1,2-2h52a2,2,0,0,1,2,2Z"/><circle class="cls-5" cx="7.52" cy="14.78" r="1.12"/><circle class="cls-5" cx="10.88" cy="14.78" r="1.12"/><circle class="cls-5" cx="14.24" cy="14.78" r="1.12"/></g></g></svg>