<?xml version="1.0" encoding="utf-8"?>
<!-- Generator: Adobe Illustrator 21.1.0, SVG Export Plug-In . SVG Version: 6.00 Build 0)  -->
<svg version="1.1" xmlns="http://www.w3.org/2000/svg" xmlns:xlink="http://www.w3.org/1999/xlink" x="0px" y="0px"
	 viewBox="0 0 64 64" style="enable-background:new 0 0 64 64;" xml:space="preserve">
<style type="text/css">
	.st0{fill:none;}
	.st1{fill:#038EA5;}
	.st2{fill:#CACACA;}
	.st3{fill:#038EA5;stroke:#FFFFFF;stroke-width:0.5;stroke-miterlimit:10;}
	.st4{fill:#FFFFFF;}
	.st5{fill:#CACACA;stroke:#FFFFFF;stroke-width:0.5;stroke-miterlimit:10;}
	.st6{fill:#038EA5;stroke:#FFFFFF;stroke-width:0.25;stroke-miterlimit:10;}
	.st7{clip-path:url(#SVGID_2_);fill:#CACACA;}
	.st8{fill:#5D9B99;}
	.st9{fill:none;stroke:#038EA5;stroke-width:3;stroke-miterlimit:10;}
	.st10{fill:#038EA5;stroke:#CACACA;stroke-miterlimit:10;}
	.st11{fill:#FFFFFF;stroke:#038EA5;stroke-miterlimit:10;}
	.st12{fill:none;stroke:#038EA5;stroke-miterlimit:10;}
	.st13{clip-path:url(#SVGID_4_);fill:#038EA5;}
	.st14{fill:#CECECE;}
</style>
<g id="c-map_x5F__x5F_all">
	<g id="c-map_x5F__x5F_all_x5F_hide">
	</g>
</g>
<g id="c-map_x5F__x5F_pin--other_x5F_hide">
</g>
<g id="c-map_x5F__x5F_pin--other_1_">
</g>
<g id="c-map_x5F__x5F_pin--large_x5F_hide">
</g>
<g id="c-map_x5F__x5F_pin--large">
</g>
<g id="c-map_x5F__x5F_pin--medium">
</g>
<g id="c-map_x5F__x5F_pin--small">
</g>
<g id="c-link_x5F__x5F_arakawa">
</g>
<g id="c-carousel_x5F_next">
</g>
<g id="c-carousel_x5F_prev">
</g>
<g id="c-link_x5F_external">
</g>
<g id="c-card_x5F_schedule">
</g>
<g id="c-card_x5F_wireframe">
</g>
<g id="c-card_x5F_definition">
</g>
<g id="c-card_x5F_version">
</g>
<g id="c-card_x5F_developer">
</g>
<g id="c-card_x5F_cms">
	<g>
		<path class="st4" d="M6.2,52.1c-0.8,0-1.5-0.7-1.5-1.5V14c0-0.8,0.7-1.5,1.5-1.5h52c0.8,0,1.5,0.7,1.5,1.5v36.6
			c0,0.8-0.7,1.5-1.5,1.5H6.2z"/>
		<path class="st2" d="M58.2,13c0.6,0,1,0.4,1,1v36.6c0,0.6-0.4,1-1,1h-52c-0.6,0-1-0.4-1-1V14c0-0.6,0.4-1,1-1H58.2 M58.2,12h-52
			c-1.1,0-2,0.9-2,2v36.6c0,1.1,0.9,2,2,2h52c1.1,0,2-0.9,2-2V14C60.2,12.9,59.3,12,58.2,12L58.2,12z"/>
	</g>
	<path class="st1" d="M35.4,33.6c0.1-0.4,0.1-0.8,0.1-1.2c0-0.4,0-0.8-0.1-1.2c-0.9-0.2-1.7-0.3-2.4-0.5c-0.2-0.6-0.4-1.2-0.7-1.7
		c0.3-0.6,0.8-1.3,1.3-2.1c-0.5-0.6-1-1.2-1.7-1.7c-0.7,0.5-1.5,1-2.1,1.3c-0.5-0.3-1.1-0.5-1.7-0.7c-0.2-0.6-0.4-1.5-0.5-2.4
		c-0.4-0.1-0.8-0.1-1.2-0.1s-0.8,0-1.2,0.1c-0.2,0.9-0.3,1.7-0.5,2.4c-0.6,0.2-1.2,0.4-1.7,0.7c-0.6-0.3-1.3-0.8-2.1-1.3
		c-0.6,0.5-1.2,1-1.7,1.7c0.5,0.7,1,1.5,1.3,2.1c-0.3,0.5-0.5,1.1-0.7,1.7c-0.6,0.2-1.5,0.4-2.4,0.5c-0.1,0.4-0.1,0.8-0.1,1.2
		c0,0.4,0,0.8,0.1,1.2c0.9,0.2,1.7,0.3,2.4,0.5c0.2,0.6,0.4,1.2,0.7,1.7c-0.3,0.6-0.8,1.3-1.3,2.1c0.5,0.6,1,1.2,1.7,1.7
		c0.7-0.5,1.5-1,2.1-1.3c0.5,0.3,1.1,0.5,1.7,0.7c0.2,0.6,0.4,1.5,0.5,2.4c0.4,0.1,0.8,0.1,1.2,0.1s0.8,0,1.2-0.1
		c0.2-0.9,0.3-1.7,0.5-2.4c0.6-0.2,1.2-0.4,1.7-0.7c0.6,0.3,1.3,0.8,2.1,1.3c0.6-0.5,1.2-1,1.7-1.7c-0.5-0.7-1-1.5-1.3-2.1
		c0.3-0.5,0.5-1.1,0.7-1.7C33.7,33.9,34.6,33.8,35.4,33.6z M26.6,36.3c-2.1,0-3.8-1.7-3.8-3.8c0-2.1,1.7-3.8,3.8-3.8
		s3.8,1.7,3.8,3.8C30.4,34.5,28.7,36.3,26.6,36.3z"/>
	<path class="st1" d="M46.9,41.2c0-0.3,0.1-0.6,0.1-0.9s0-0.6-0.1-0.9c-0.7-0.1-1.4-0.2-1.9-0.4c-0.1-0.5-0.3-0.9-0.5-1.3
		c0.2-0.5,0.6-1,1-1.6c-0.4-0.5-0.8-0.9-1.3-1.3c-0.6,0.4-1.1,0.8-1.6,1c-0.4-0.2-0.8-0.4-1.3-0.5c-0.2-0.5-0.3-1.2-0.4-1.9
		c-0.3,0-0.6-0.1-0.9-0.1s-0.6,0-0.9,0.1c-0.1,0.7-0.2,1.4-0.4,1.9c-0.5,0.1-0.9,0.3-1.3,0.5c-0.5-0.2-1-0.6-1.6-1
		c-0.5,0.4-0.9,0.8-1.3,1.3c0.4,0.6,0.8,1.1,1,1.6c-0.2,0.4-0.4,0.8-0.5,1.3c-0.5,0.2-1.2,0.3-1.9,0.4c0,0.3-0.1,0.6-0.1,0.9
		s0,0.6,0.1,0.9c0.7,0.1,1.4,0.2,1.9,0.4c0.1,0.5,0.3,0.9,0.5,1.3c-0.2,0.5-0.6,1-1,1.6c0.4,0.5,0.8,0.9,1.3,1.3
		c0.6-0.4,1.1-0.8,1.6-1c0.4,0.2,0.8,0.4,1.3,0.5c0.2,0.5,0.3,1.2,0.4,1.9c0.3,0,0.6,0.1,0.9,0.1s0.6,0,0.9-0.1
		c0.1-0.7,0.2-1.4,0.4-1.9c0.5-0.1,0.9-0.3,1.3-0.5c0.5,0.2,1,0.6,1.6,1c0.5-0.4,0.9-0.8,1.3-1.3c-0.4-0.6-0.8-1.1-1-1.6
		c0.2-0.4,0.4-0.8,0.5-1.3C45.6,41.4,46.3,41.3,46.9,41.2z M40,43.3c-1.7,0-3-1.3-3-3c0-1.7,1.3-3,3-3s3,1.3,3,3
		C43,41.9,41.7,43.3,40,43.3z"/>
	<g>
		<path class="st2" d="M60.2,17.6h-56V14c0-1.1,0.9-2,2-2h52c1.1,0,2,0.9,2,2V17.6z"/>
	</g>
	<circle class="st8" cx="7.5" cy="14.8" r="1.1"/>
	<circle class="st8" cx="10.9" cy="14.8" r="1.1"/>
	<circle class="st8" cx="14.2" cy="14.8" r="1.1"/>
	<rect class="st0" width="64" height="64"/>
</g>
<g id="c-card_x5F_javascript">
</g>
<g id="c-card_x5F_css">
</g>
<g id="c-card_x5F_html">
</g>
<g id="c-card_x5F_sort">
</g>
<g id="c-card_x5F_leader">
</g>
<g id="c-card_x5F_comment">
</g>
<g id="tone_x26_manner">
</g>
<g id="guide">
</g>
</svg>
