<?xml version="1.0" encoding="utf-8"?>
<!-- Generator: Adobe Illustrator 21.1.0, SVG Export Plug-In . SVG Version: 6.00 Build 0)  -->
<svg version="1.1" xmlns="http://www.w3.org/2000/svg" xmlns:xlink="http://www.w3.org/1999/xlink" x="0px" y="0px"
	 viewBox="0 0 64 64" style="enable-background:new 0 0 64 64;" xml:space="preserve">
<style type="text/css">
	.st0{fill:#038EA5;}
	.st1{fill:#FFFFFF;}
	.st2{fill:none;}
	.st3{fill:#CACACA;}
	.st4{fill:#5D9B99;}
	.st5{fill:none;stroke:#038EA5;stroke-width:3;stroke-miterlimit:10;}
	.st6{fill:#038EA5;stroke:#CACACA;stroke-miterlimit:10;}
	.st7{fill:#FFFFFF;stroke:#038EA5;stroke-miterlimit:10;}
	.st8{fill:none;stroke:#038EA5;stroke-miterlimit:10;}
	.st9{clip-path:url(#SVGID_2_);fill:#038EA5;}
	.st10{fill:#CECECE;}
</style>
<g id="nextarrow">
</g>
<g id="prevarrow">
</g>
<g id="outerlink">
</g>
<g id="scheduling">
</g>
<g id="wireframe">
</g>
<g id="definition">
</g>
<g id="version">
</g>
<g id="taskrunner">
</g>
<g id="cms">
</g>
<g id="javascript">
	<rect class="st2" width="64" height="64"/>
	<path class="st7" d="M43.3,31.5C43.3,31.5,43.3,31.5,43.3,31.5c-3.2,0-5.8-5.2-5.8-11.5c0-0.2,0-0.3,0-0.5h12
		c-0.1-6.7-2.9-12-6.2-12c0,0-22.8,0-22.8,0c-3.5,0-6.3,5.6-6.3,12.5c0,6.9,2.8,12.5,6.2,12.5l0,0c3.2,0,5.8,5.2,5.8,11.5
		c0,0.2,0,0.3,0,0.5h-12c0.1,6.7,2.9,12,6.2,12c0,0,22.8,0,22.8,0c3.5,0,6.3-5.6,6.3-12.5C49.5,37.1,46.7,31.5,43.3,31.5z"/>
	<g>
		<path class="st0" d="M43.5,31.5L43.5,31.5c-3.2,0-5.8-5.2-5.8-11.5s2.6-11.5,5.8-11.5c3.1,0,5.6,4.9,5.7,11h0.5
			c-0.1-6.7-2.9-12-6.2-12C40.1,7.5,37,13.1,37,20c0,6.9,3.1,12.5,6.5,12.5l0,0c3.2,0,5.8,5.2,5.8,11.5s-2.6,11.5-5.8,11.5
			c-3.1,0-5.6-4.9-5.7-11h-0.5c0.1,6.7,2.9,12,6.2,12c3.5,0,6.3-5.6,6.3-12.5C49.8,37.1,47,31.5,43.5,31.5z"/>
	</g>
	<path class="st3" d="M37.8,19.5h11.5c0-5.2-2.6-11.5-5.8-11.5S37.8,14.3,37.8,19.5z"/>
	<line class="st8" x1="25.9" y1="44.5" x2="37.8" y2="44.5"/>
	<rect x="18.9" y="11.2" class="st4" width="16.3" height="2"/>
	<rect x="18.9" y="26.2" class="st4" width="16.3" height="2"/>
	<rect x="25" y="31" class="st4" width="13" height="2.2"/>
	<rect x="16.9" y="16.2" class="st4" width="16.3" height="2"/>
	<rect x="16.9" y="21.2" class="st4" width="16.3" height="2"/>
</g>
<g id="css">
</g>
<g id="html">
</g>
<g id="sorting">
</g>
<g id="leadership">
</g>
<g id="communication">
</g>
<g id="tone_x26_manner">
</g>
<g id="guide">
</g>
</svg>
