<?xml version="1.0" encoding="utf-8"?>
<!-- Generator: Adobe Illustrator 21.1.0, SVG Export Plug-In . SVG Version: 6.00 Build 0)  -->
<svg version="1.1" xmlns="http://www.w3.org/2000/svg" xmlns:xlink="http://www.w3.org/1999/xlink" x="0px" y="0px"
	 viewBox="0 0 64 64" style="enable-background:new 0 0 64 64;" xml:space="preserve">
<style type="text/css">
	.st0{fill:#038EA5;}
	.st1{fill:#FFFFFF;}
	.st2{fill:none;}
	.st3{fill:#CACACA;}
	.st4{fill:#5D9B99;}
	.st5{fill:none;stroke:#038EA5;stroke-width:3;stroke-miterlimit:10;}
	.st6{fill:#038EA5;stroke:#CACACA;stroke-miterlimit:10;}
	.st7{fill:#FFFFFF;stroke:#038EA5;stroke-miterlimit:10;}
	.st8{fill:none;stroke:#038EA5;stroke-miterlimit:10;}
	.st9{clip-path:url(#SVGID_2_);fill:#038EA5;}
	.st10{fill:#CECECE;}
</style>
<g id="nextarrow">
</g>
<g id="prevarrow">
</g>
<g id="outerlink">
</g>
<g id="scheduling">
</g>
<g id="wireframe">
</g>
<g id="definition">
</g>
<g id="version">
</g>
<g id="taskrunner">
</g>
<g id="cms">
</g>
<g id="javascript">
</g>
<g id="css">
	<rect class="st2" width="64" height="64"/>
	<g>
		<path class="st1" d="M16.1,56.5c-1,0-1.9-0.9-1.9-1.9V9.4c0-1,0.9-1.9,1.9-1.9h24.1l8.6,8.6v38.5c0,1-0.9,1.9-1.9,1.9H16.1z"/>
		<path class="st3" d="M40,8l8.3,8.3v38.3c0,0.8-0.6,1.4-1.4,1.4H16.1c-0.8,0-1.4-0.6-1.4-1.4V9.4c0-0.8,0.6-1.4,1.4-1.4H40 M40.4,7
			H16.1c-1.3,0-2.4,1.1-2.4,2.4v45.2c0,1.3,1.1,2.4,2.4,2.4h30.8c1.3,0,2.4-1.1,2.4-2.4V15.9L40.4,7L40.4,7z"/>
	</g>
	<g>
		<path class="st3" d="M42.8,15.9c-1.3,0-2.4-1.1-2.4-2.4V7l8.9,8.9H42.8z"/>
	</g>
	<g>
		<g>
			<path class="st0" d="M24.5,38.6c-1.2,0-2-0.7-2-1.9v-2.4c0-1.3-0.1-1.6-0.8-1.7v-1.4c0.6-0.1,0.8-0.4,0.8-1.7v-2.4
				c0-1.2,0.7-1.9,2-1.9H26v1.5h-0.6c-0.5,0-0.7,0-0.9,0.2c-0.2,0.2-0.2,0.3-0.2,0.8v1.7c0,1.8-0.1,2-0.7,2.4
				c0.7,0.3,0.7,0.6,0.7,2.3v1.8c0,0.5,0,0.7,0.2,0.8c0.2,0.2,0.3,0.2,0.9,0.2H26v1.5H24.5z"/>
		</g>
		<g>
			<path class="st0" d="M27.2,36.5v-2h2v2H27.2z"/>
		</g>
		<g>
			<path class="st0" d="M31,36.5v-2h2v2H31z"/>
		</g>
		<g>
			<path class="st0" d="M34.8,36.5v-2h2v2H34.8z"/>
		</g>
		<g>
			<path class="st0" d="M38,37.1h0.6c0.5,0,0.7,0,0.9-0.2c0.2-0.2,0.2-0.3,0.2-0.8v-1.8c0-1.8,0.1-2.1,0.7-2.3
				c-0.7-0.4-0.7-0.6-0.7-2.4v-1.7c0-0.5,0-0.7-0.2-0.8c-0.2-0.2-0.3-0.2-0.9-0.2H38v-1.5h1.5c1.2,0,2,0.7,2,1.9v2.4
				c0,1.3,0.1,1.6,0.8,1.7v1.4c-0.6,0.1-0.8,0.4-0.8,1.7v2.4c0,1.2-0.7,1.9-2,1.9H38V37.1z"/>
		</g>
	</g>
</g>
<g id="html">
</g>
<g id="sorting">
</g>
<g id="leadership">
</g>
<g id="communication">
</g>
<g id="tone_x26_manner">
</g>
<g id="guide">
</g>
</svg>
