<svg xmlns="http://www.w3.org/2000/svg" viewBox="0 0 64 64"><defs><style>.cls-1{fill:none;}.cls-2{fill:#fff;}.cls-3{fill:#cacaca;}.cls-4{fill:#038ea5;}</style></defs><title>c-card_html</title><g id="レイヤー_2" data-name="レイヤー 2"><g id="c-card_html"><rect class="cls-1" width="64" height="64"/><path class="cls-2" d="M17.12,56.5a1.91,1.91,0,0,1-1.9-1.9V9.4a1.91,1.91,0,0,1,1.9-1.9H41.19l8.6,8.6V54.6a1.91,1.91,0,0,1-1.9,1.9Z"/><path class="cls-3" d="M41,8l8.31,8.31V54.6a1.41,1.41,0,0,1-1.4,1.4H17.12a1.41,1.41,0,0,1-1.4-1.4V9.4A1.41,1.41,0,0,1,17.12,8H41m.41-1H17.12a2.41,2.41,0,0,0-2.4,2.4V54.6a2.41,2.41,0,0,0,2.4,2.4H47.88a2.41,2.41,0,0,0,2.4-2.4V15.89L41.39,7Z"/><path class="cls-3" d="M43.8,15.89a2.41,2.41,0,0,1-2.4-2.4V7l8.89,8.89Z"/><path class="cls-4" d="M27.89,34.81v1.91l-6.84-3.89v-.71l6.84-3.89v1.91l-4.34,2.34Z"/><path class="cls-4" d="M35.39,25.37,30.33,38.63H28.61l5.07-13.27Z"/><path class="cls-4" d="M36.12,30.12V28.21L43,32.11v.71l-6.83,3.89V34.81l4.34-2.35Z"/></g></g></svg>