<?xml version="1.0" encoding="utf-8"?>
<!-- Generator: Adobe Illustrator 21.1.0, SVG Export Plug-In . SVG Version: 6.00 Build 0)  -->
<svg version="1.1" xmlns="http://www.w3.org/2000/svg" xmlns:xlink="http://www.w3.org/1999/xlink" x="0px" y="0px"
	 viewBox="0 0 64 64" style="enable-background:new 0 0 64 64;" xml:space="preserve">
<style type="text/css">
	.st0{fill:none;}
	.st1{fill:#038EA5;}
	.st2{fill:#CACACA;}
	.st3{fill:#038EA5;stroke:#FFFFFF;stroke-width:0.5;stroke-miterlimit:10;}
	.st4{fill:#FFFFFF;}
	.st5{fill:#CACACA;stroke:#FFFFFF;stroke-width:0.5;stroke-miterlimit:10;}
	.st6{fill:#038EA5;stroke:#FFFFFF;stroke-width:0.25;stroke-miterlimit:10;}
	.st7{clip-path:url(#SVGID_2_);fill:#CACACA;}
	.st8{fill:#5D9B99;}
	.st9{fill:none;stroke:#038EA5;stroke-width:3;stroke-miterlimit:10;}
	.st10{fill:#038EA5;stroke:#CACACA;stroke-miterlimit:10;}
	.st11{fill:#FFFFFF;stroke:#038EA5;stroke-miterlimit:10;}
	.st12{fill:none;stroke:#038EA5;stroke-miterlimit:10;}
	.st13{clip-path:url(#SVGID_4_);fill:#038EA5;}
	.st14{fill:#CECECE;}
</style>
<g id="c-map_x5F__x5F_all">
	<g id="c-map_x5F__x5F_all_x5F_hide">
	</g>
</g>
<g id="c-map_x5F__x5F_pin--other_x5F_hide">
</g>
<g id="c-map_x5F__x5F_pin--other_1_">
</g>
<g id="c-map_x5F__x5F_pin--large_x5F_hide">
</g>
<g id="c-map_x5F__x5F_pin--large">
</g>
<g id="c-map_x5F__x5F_pin--medium">
</g>
<g id="c-map_x5F__x5F_pin--small">
</g>
<g id="c-link_x5F__x5F_arakawa">
	<g>
		<defs>
			<rect id="SVGID_1_" x="5" y="2" transform="matrix(-1.836970e-16 1 -1 -1.836970e-16 62 -2)" width="54" height="56"/>
		</defs>
		<clipPath id="SVGID_2_">
			<use xlink:href="#SVGID_1_"  style="overflow:visible;"/>
		</clipPath>
		<path class="st7" d="M47.4,40.6l5.1-8.8c0.1-0.1,0-0.3-0.1-0.3l-3-1.8c-0.1-0.1-0.3,0-0.3,0.1l-5.1,8.8c0,0,0,0.1,0,0.1l-2.4-1.4
			c0,0-0.1-0.1-0.1-0.1l-1.7-1c-0.2-0.1-0.5-0.1-0.7,0.2l0,0l0,0l-1,1.7l0,0L37.4,39c-0.1,0.2-0.1,0.5,0.2,0.7l1.7,1
			c0.2,0.1,0.5,0.1,0.7-0.2l0.2-0.4l1.4,0.8L25.7,68.4h0l1.1,4.1l4.1-1.1v0l15.9-27.5l1.2,0.7L47.8,45c-0.1,0.2-0.1,0.5,0.2,0.7
			l1.7,1c0.2,0.1,0.5,0.1,0.7-0.2l0.5-0.9l1-1.7c0.1-0.2,0.1-0.5-0.2-0.7l-1.7-1L47.4,40.6C47.3,40.7,47.3,40.7,47.4,40.6z"/>
	</g>
	<path class="st1" d="M47.4,50.3c-0.1-0.5-0.5-1-1-1.4c0.5-0.7,0.7-1.4,0.5-2c-0.6-2.1-5.2-2.8-11.1-1.9c0-0.3,0.1-0.6,0.1-0.7
		c4.6-1.2,7.3-4.9,6.6-8.7c1.1,0.1,2.4-0.9,3.1-2.5c0.7-1.6,0.6-3.2-0.2-3.9l0.3-0.2l2.1-0.2L47.2,25l2,1.7c0,0-1.4-3.4-1.4-5.9
		l2-1.2c0,0-3.1-0.4-3.3-1.9c-0.1-1.6-1.2-6.3-8-7.7c0,0-2.9-3.3-6.5-3.3l0.1,1.4c0,0-5.5-2-10.1,5.5c-1.4,2.4-2.6,3.2-4.4,2
		c0,0,1.1,3-2.3,1.9c0,0,6,3.5-0.8,7.4c0,0,3.2-0.6,2.8,3.5c-0.1,0.8,1.4,0.9,1.3,2.1c0,0.7,0.1,1.5,0.5,2.3c0.7,1.6,2,2.6,3.1,2.5
		c-0.6,3.8,2,7.4,6.6,8.7c0,0.2,0.1,0.4,0.1,0.7C23.2,44,18.6,44.7,18,46.8c-0.2,0.6,0,1.3,0.5,2c-0.5,0.5-0.9,0.9-1,1.4
		c-1.6,0.8-2.5,1.6-2.5,2.6c0,2.8,7.8,5,17.5,5s17.5-2.2,17.5-5C50,51.9,49,51.1,47.4,50.3z"/>
	<path class="st2" d="M45.2,25c-3.1-1.1-5.9-1.8-8.7-2.2c0-0.1,0-0.3,0-0.4c0-2.2-1.8-4-4-4c-2.2,0-4,1.8-4,4c0,0.1,0,0.3,0,0.4
		c-2.8,0.3-5.7,1.1-8.7,2.2c-0.7,0.3-0.5,2.9-0.2,3.5c0.3,0.6,0.8,0.4,1.4,0.2c0.1,0,7-2.1,10.6-2.1v-0.2l0,0l0,0v0.2
		c3.6-0.1,7.8,0.6,11.8,2c0.1,0,1.6,0.5,1.9-0.1C45.6,27.9,46,25.3,45.2,25z"/>
	<path class="st0" d="M44.9,28.5c-0.2,0-0.8-0.2-0.8-0.3l-0.1,0c-4-1.4-7.6-2-11.2-2c-0.1,0-0.3,0-0.4,0c-0.1,0-0.3,0-0.4,0
		c-3.5,0-11.2,2.1-11.2,2.1c-0.2,0.1-0.5,0.2-0.6,0.2c-0.1,0-0.1,0-0.2-0.2c-0.3-0.6-0.3-2.8,0-3c3-1.1,5.9-1.8,8.6-2.1l0.4,0l0-0.4
		c0-0.1,0-0.2,0-0.4c0-2,1.6-3.6,3.6-3.6s3.6,1.6,3.6,3.6c0,0.1,0,0.2,0,0.4l0,0.4l0.4,0c2.7,0.3,5.6,1,8.6,2.1c0.3,0.2,0.3,2.4,0,3
		C45,28.5,44.9,28.5,44.9,28.5L44.9,28.5z"/>
	<circle class="st2" cx="32.6" cy="22.6" r="3.2"/>
	<g>
		<circle class="st8" cx="32.6" cy="22.6" r="2.5"/>
	</g>
	<g>
		<circle class="st4" cx="33.2" cy="21.8" r="1"/>
	</g>
	<rect class="st0" width="64" height="64"/>
</g>
<g id="c-carousel_x5F_next">
</g>
<g id="c-carousel_x5F_prev">
</g>
<g id="c-link_x5F_external">
</g>
<g id="c-card_x5F_schedule">
</g>
<g id="c-card_x5F_wireframe">
</g>
<g id="c-card_x5F_definition">
</g>
<g id="c-card_x5F_version">
</g>
<g id="c-card_x5F_developer">
</g>
<g id="c-card_x5F_cms">
</g>
<g id="c-card_x5F_javascript">
</g>
<g id="c-card_x5F_css">
</g>
<g id="c-card_x5F_html">
</g>
<g id="c-card_x5F_sort">
</g>
<g id="c-card_x5F_leader">
</g>
<g id="c-card_x5F_comment">
</g>
<g id="tone_x26_manner">
</g>
<g id="guide">
</g>
</svg>
