<?xml version="1.0" encoding="utf-8"?>
<!-- Generator: Adobe Illustrator 21.1.0, SVG Export Plug-In . SVG Version: 6.00 Build 0)  -->
<svg version="1.1" id="c_x5F__x5F_link--github" xmlns="http://www.w3.org/2000/svg" xmlns:xlink="http://www.w3.org/1999/xlink"
	 x="0px" y="0px" viewBox="0 0 64 64" style="enable-background:new 0 0 64 64;" xml:space="preserve">
<style type="text/css">
	.st0{fill-rule:evenodd;clip-rule:evenodd;fill:#1A1414;}
	.st1{fill:#1A1414;}
	.st2{fill-rule:evenodd;clip-rule:evenodd;fill:none;}
</style>
<g>
	<path class="st0" d="M32,4.7c-15.5,0-28,12.5-28,28c0,12.4,8,22.9,19.1,26.6c1.4,0.3,1.9-0.6,1.9-1.3c0-0.7,0-2.9,0-5.2
		c-7.8,1.7-9.4-3.3-9.4-3.3c-1.3-3.2-3.1-4.1-3.1-4.1c-2.5-1.7,0.2-1.7,0.2-1.7c2.8,0.2,4.3,2.9,4.3,2.9c2.5,4.3,6.6,3,8.1,2.3
		c0.3-1.8,1-3,1.8-3.7c-6.2-0.7-12.8-3.1-12.8-13.8c0-3.1,1.1-5.6,2.9-7.5c-0.3-0.7-1.2-3.6,0.3-7.4c0,0,2.4-0.8,7.7,2.9
		c2.2-0.6,4.6-0.9,7-0.9c2.4,0,4.8,0.3,7,0.9c5.3-3.6,7.7-2.9,7.7-2.9c1.5,3.9,0.6,6.7,0.3,7.4c1.8,2,2.9,4.5,2.9,7.5
		c0,10.8-6.6,13.1-12.8,13.8c1,0.9,1.9,2.6,1.9,5.2c0,3.7,0,6.8,0,7.7c0,0.7,0.5,1.6,1.9,1.3C52,55.6,60,45.1,60,32.7
		C60,17.2,47.5,4.7,32,4.7z"/>
	<path class="st1" d="M14.6,44.9c-0.1,0.1-0.3,0.2-0.5,0.1c-0.2-0.1-0.3-0.3-0.3-0.4c0.1-0.1,0.3-0.2,0.5-0.1
		C14.6,44.6,14.7,44.8,14.6,44.9L14.6,44.9z M14.3,44.6"/>
	<path class="st1" d="M15.7,46.2c-0.1,0.1-0.4,0.1-0.6-0.1c-0.2-0.2-0.2-0.5-0.1-0.6c0.1-0.1,0.4-0.1,0.6,0.1
		C15.8,45.8,15.9,46,15.7,46.2L15.7,46.2z M15.5,45.9"/>
	<path class="st1" d="M16.8,47.8c-0.2,0.1-0.5,0-0.6-0.2c-0.2-0.2-0.2-0.5,0-0.7c0.2-0.1,0.5,0,0.6,0.2C17,47.3,17,47.6,16.8,47.8
		L16.8,47.8z M16.8,47.8"/>
	<path class="st1" d="M18.4,49.3c-0.2,0.2-0.5,0.1-0.7-0.1c-0.2-0.2-0.3-0.5-0.2-0.7c0.2-0.2,0.5-0.1,0.7,0.1
		C18.4,48.8,18.5,49.2,18.4,49.3L18.4,49.3z M18.4,49.3"/>
	<path class="st1" d="M20.4,50.2c-0.1,0.2-0.4,0.3-0.7,0.2c-0.3-0.1-0.5-0.4-0.5-0.6c0.1-0.2,0.4-0.3,0.7-0.2
		C20.3,49.8,20.5,50,20.4,50.2L20.4,50.2z M20.4,50.2"/>
	<path class="st1" d="M22.7,50.4c0,0.2-0.3,0.4-0.6,0.4c-0.3,0-0.6-0.2-0.6-0.4c0-0.2,0.3-0.4,0.6-0.4C22.5,50,22.7,50.2,22.7,50.4
		L22.7,50.4z M22.7,50.4"/>
	<path class="st1" d="M24.9,50c0,0.2-0.2,0.5-0.5,0.5c-0.3,0.1-0.6-0.1-0.7-0.3c0-0.2,0.2-0.5,0.5-0.5C24.5,49.7,24.8,49.8,24.9,50
		L24.9,50z M24.9,50"/>
</g>
<rect class="st2" width="64" height="64"/>
</svg>
